<mxfile host="app.diagrams.net" modified="2023-10-12T13:17:46.382Z" agent="Mozilla/5.0 (Windows NT 10.0; Win64; x64) AppleWebKit/537.36 (KHTML, like Gecko) Chrome/116.0.5845.967 YaBrowser/23.9.1.967 Yowser/2.5 Safari/537.36" etag="WUDDF9GgDTMCYKjdQMZR" version="22.0.4" type="device" pages="3">
  <diagram id="1iLuEVDnIjaZkvtr9r3q" name="Use Case">
    <mxGraphModel dx="2060" dy="1740" grid="0" gridSize="28" guides="1" tooltips="1" connect="1" arrows="1" fold="1" page="1" pageScale="1" pageWidth="827" pageHeight="1169" background="#ffffff" math="0" shadow="0">
      <root>
        <mxCell id="0" />
        <mxCell id="1" parent="0" />
        <mxCell id="Kh0sasTL_dXiheRaYRA4-22" style="edgeStyle=none;rounded=1;orthogonalLoop=1;jettySize=auto;html=1;exitX=0.5;exitY=0.5;exitDx=0;exitDy=0;exitPerimeter=0;entryX=0;entryY=1;entryDx=0;entryDy=0;labelBackgroundColor=none;fontColor=default;" parent="1" source="oxRBoDqXkXfbxjHfXgDR-1" target="Kh0sasTL_dXiheRaYRA4-2" edge="1">
          <mxGeometry relative="1" as="geometry" />
        </mxCell>
        <mxCell id="Kh0sasTL_dXiheRaYRA4-23" style="edgeStyle=none;rounded=1;orthogonalLoop=1;jettySize=auto;html=1;exitX=0.5;exitY=0.5;exitDx=0;exitDy=0;exitPerimeter=0;entryX=0;entryY=0.5;entryDx=0;entryDy=0;labelBackgroundColor=none;fontColor=default;" parent="1" source="oxRBoDqXkXfbxjHfXgDR-1" target="Kh0sasTL_dXiheRaYRA4-11" edge="1">
          <mxGeometry relative="1" as="geometry" />
        </mxCell>
        <mxCell id="Kh0sasTL_dXiheRaYRA4-24" style="edgeStyle=none;rounded=1;orthogonalLoop=1;jettySize=auto;html=1;exitX=0.5;exitY=0.5;exitDx=0;exitDy=0;exitPerimeter=0;entryX=0;entryY=0.5;entryDx=0;entryDy=0;labelBackgroundColor=none;fontColor=default;" parent="1" source="oxRBoDqXkXfbxjHfXgDR-1" target="Kh0sasTL_dXiheRaYRA4-1" edge="1">
          <mxGeometry relative="1" as="geometry" />
        </mxCell>
        <mxCell id="Kh0sasTL_dXiheRaYRA4-31" style="edgeStyle=none;rounded=1;orthogonalLoop=1;jettySize=auto;html=1;exitX=0.5;exitY=0.5;exitDx=0;exitDy=0;exitPerimeter=0;entryX=0;entryY=0;entryDx=0;entryDy=0;labelBackgroundColor=none;fontColor=default;" parent="1" source="oxRBoDqXkXfbxjHfXgDR-1" target="Kh0sasTL_dXiheRaYRA4-12" edge="1">
          <mxGeometry relative="1" as="geometry" />
        </mxCell>
        <mxCell id="Kh0sasTL_dXiheRaYRA4-32" style="edgeStyle=none;rounded=1;orthogonalLoop=1;jettySize=auto;html=1;exitX=0.5;exitY=0.5;exitDx=0;exitDy=0;exitPerimeter=0;entryX=0.5;entryY=0;entryDx=0;entryDy=0;labelBackgroundColor=none;fontColor=default;" parent="1" source="oxRBoDqXkXfbxjHfXgDR-1" target="Kh0sasTL_dXiheRaYRA4-10" edge="1">
          <mxGeometry relative="1" as="geometry" />
        </mxCell>
        <mxCell id="Kh0sasTL_dXiheRaYRA4-33" style="edgeStyle=none;rounded=1;orthogonalLoop=1;jettySize=auto;html=1;exitX=0.5;exitY=0.5;exitDx=0;exitDy=0;exitPerimeter=0;entryX=1;entryY=0;entryDx=0;entryDy=0;labelBackgroundColor=none;fontColor=default;" parent="1" source="oxRBoDqXkXfbxjHfXgDR-1" target="Kh0sasTL_dXiheRaYRA4-8" edge="1">
          <mxGeometry relative="1" as="geometry" />
        </mxCell>
        <mxCell id="Kh0sasTL_dXiheRaYRA4-41" style="edgeStyle=none;rounded=1;orthogonalLoop=1;jettySize=auto;html=1;exitX=0.5;exitY=0.5;exitDx=0;exitDy=0;exitPerimeter=0;entryX=0.5;entryY=1;entryDx=0;entryDy=0;labelBackgroundColor=none;fontColor=default;" parent="1" source="oxRBoDqXkXfbxjHfXgDR-1" target="Kh0sasTL_dXiheRaYRA4-7" edge="1">
          <mxGeometry relative="1" as="geometry" />
        </mxCell>
        <mxCell id="Kh0sasTL_dXiheRaYRA4-95" style="edgeStyle=none;rounded=1;orthogonalLoop=1;jettySize=auto;html=1;exitX=0.5;exitY=0.5;exitDx=0;exitDy=0;exitPerimeter=0;entryX=1;entryY=0.5;entryDx=0;entryDy=0;labelBackgroundColor=none;fontColor=default;" parent="1" source="oxRBoDqXkXfbxjHfXgDR-1" target="Kh0sasTL_dXiheRaYRA4-93" edge="1">
          <mxGeometry relative="1" as="geometry" />
        </mxCell>
        <mxCell id="Kh0sasTL_dXiheRaYRA4-109" style="edgeStyle=none;rounded=1;orthogonalLoop=1;jettySize=auto;html=1;exitX=0.5;exitY=0.5;exitDx=0;exitDy=0;exitPerimeter=0;entryX=0;entryY=0.5;entryDx=0;entryDy=0;labelBackgroundColor=none;fontColor=default;" parent="1" source="oxRBoDqXkXfbxjHfXgDR-1" target="Kh0sasTL_dXiheRaYRA4-9" edge="1">
          <mxGeometry relative="1" as="geometry" />
        </mxCell>
        <mxCell id="oxRBoDqXkXfbxjHfXgDR-1" value="Пользователь" style="shape=umlActor;verticalLabelPosition=bottom;verticalAlign=top;html=1;strokeWidth=3;labelBackgroundColor=none;rounded=1;" parent="1" vertex="1">
          <mxGeometry x="600" y="280" width="30" height="60" as="geometry" />
        </mxCell>
        <mxCell id="Kh0sasTL_dXiheRaYRA4-25" style="edgeStyle=none;rounded=1;orthogonalLoop=1;jettySize=auto;html=1;exitX=1;exitY=0;exitDx=0;exitDy=0;entryX=0;entryY=0.5;entryDx=0;entryDy=0;labelBackgroundColor=none;fontColor=default;dashed=1;" parent="1" source="Kh0sasTL_dXiheRaYRA4-1" target="Kh0sasTL_dXiheRaYRA4-13" edge="1">
          <mxGeometry relative="1" as="geometry" />
        </mxCell>
        <mxCell id="Kh0sasTL_dXiheRaYRA4-26" style="edgeStyle=none;rounded=1;orthogonalLoop=1;jettySize=auto;html=1;exitX=1;exitY=0.5;exitDx=0;exitDy=0;entryX=0;entryY=0.5;entryDx=0;entryDy=0;labelBackgroundColor=none;fontColor=default;dashed=1;" parent="1" source="Kh0sasTL_dXiheRaYRA4-1" target="Kh0sasTL_dXiheRaYRA4-14" edge="1">
          <mxGeometry relative="1" as="geometry" />
        </mxCell>
        <mxCell id="Kh0sasTL_dXiheRaYRA4-27" style="edgeStyle=none;rounded=1;orthogonalLoop=1;jettySize=auto;html=1;exitX=1;exitY=1;exitDx=0;exitDy=0;entryX=0;entryY=0;entryDx=0;entryDy=0;labelBackgroundColor=none;fontColor=default;dashed=1;" parent="1" source="Kh0sasTL_dXiheRaYRA4-1" target="Kh0sasTL_dXiheRaYRA4-15" edge="1">
          <mxGeometry relative="1" as="geometry" />
        </mxCell>
        <mxCell id="Kh0sasTL_dXiheRaYRA4-28" style="edgeStyle=none;rounded=1;orthogonalLoop=1;jettySize=auto;html=1;exitX=0.5;exitY=1;exitDx=0;exitDy=0;entryX=0.5;entryY=0;entryDx=0;entryDy=0;labelBackgroundColor=none;fontColor=default;dashed=1;" parent="1" source="Kh0sasTL_dXiheRaYRA4-1" target="Kh0sasTL_dXiheRaYRA4-9" edge="1">
          <mxGeometry relative="1" as="geometry" />
        </mxCell>
        <mxCell id="Kh0sasTL_dXiheRaYRA4-1" value="Создать файл записи" style="ellipse;whiteSpace=wrap;html=1;labelBackgroundColor=none;rounded=1;" parent="1" vertex="1">
          <mxGeometry x="810" y="230" width="140" height="70" as="geometry" />
        </mxCell>
        <mxCell id="Kh0sasTL_dXiheRaYRA4-21" style="rounded=1;orthogonalLoop=1;jettySize=auto;html=1;exitX=1;exitY=0;exitDx=0;exitDy=0;entryX=0;entryY=1;entryDx=0;entryDy=0;labelBackgroundColor=none;fontColor=default;dashed=1;" parent="1" source="Kh0sasTL_dXiheRaYRA4-2" target="Kh0sasTL_dXiheRaYRA4-4" edge="1">
          <mxGeometry relative="1" as="geometry" />
        </mxCell>
        <mxCell id="Kh0sasTL_dXiheRaYRA4-94" style="edgeStyle=none;rounded=1;orthogonalLoop=1;jettySize=auto;html=1;exitX=0.037;exitY=0.667;exitDx=0;exitDy=0;entryX=1;entryY=0;entryDx=0;entryDy=0;exitPerimeter=0;labelBackgroundColor=none;fontColor=default;dashed=1;" parent="1" source="Kh0sasTL_dXiheRaYRA4-2" target="Kh0sasTL_dXiheRaYRA4-5" edge="1">
          <mxGeometry relative="1" as="geometry" />
        </mxCell>
        <mxCell id="Kh0sasTL_dXiheRaYRA4-2" value="Выбрать фигуру для отрисовки граф.редактором" style="ellipse;whiteSpace=wrap;html=1;labelBackgroundColor=none;rounded=1;" parent="1" vertex="1">
          <mxGeometry x="695" y="50" width="140" height="70" as="geometry" />
        </mxCell>
        <mxCell id="Kh0sasTL_dXiheRaYRA4-3" value="Выбрать простую фигуру" style="ellipse;whiteSpace=wrap;html=1;labelBackgroundColor=none;rounded=1;" parent="1" vertex="1">
          <mxGeometry x="680" y="-50" width="140" height="70" as="geometry" />
        </mxCell>
        <mxCell id="Kh0sasTL_dXiheRaYRA4-4" value="Выбрать сложную фигуру" style="ellipse;whiteSpace=wrap;html=1;labelBackgroundColor=none;rounded=1;" parent="1" vertex="1">
          <mxGeometry x="850" y="-20" width="140" height="70" as="geometry" />
        </mxCell>
        <mxCell id="Kh0sasTL_dXiheRaYRA4-5" value="Выбрать место отрисовки фигуры" style="ellipse;whiteSpace=wrap;html=1;labelBackgroundColor=none;rounded=1;" parent="1" vertex="1">
          <mxGeometry x="530" y="140" width="140" height="70" as="geometry" />
        </mxCell>
        <mxCell id="Kh0sasTL_dXiheRaYRA4-103" style="edgeStyle=none;rounded=1;orthogonalLoop=1;jettySize=auto;html=1;exitX=0;exitY=0;exitDx=0;exitDy=0;entryX=1;entryY=1;entryDx=0;entryDy=0;labelBackgroundColor=none;fontColor=default;dashed=1;" parent="1" source="Kh0sasTL_dXiheRaYRA4-6" target="Kh0sasTL_dXiheRaYRA4-40" edge="1">
          <mxGeometry relative="1" as="geometry" />
        </mxCell>
        <mxCell id="Kh0sasTL_dXiheRaYRA4-104" style="edgeStyle=none;rounded=1;orthogonalLoop=1;jettySize=auto;html=1;exitX=0;exitY=0.5;exitDx=0;exitDy=0;entryX=1;entryY=0.5;entryDx=0;entryDy=0;labelBackgroundColor=none;fontColor=default;dashed=1;" parent="1" source="Kh0sasTL_dXiheRaYRA4-6" target="Kh0sasTL_dXiheRaYRA4-83" edge="1">
          <mxGeometry relative="1" as="geometry" />
        </mxCell>
        <mxCell id="Kh0sasTL_dXiheRaYRA4-105" style="edgeStyle=none;rounded=1;orthogonalLoop=1;jettySize=auto;html=1;exitX=0;exitY=0.5;exitDx=0;exitDy=0;entryX=1;entryY=0.5;entryDx=0;entryDy=0;labelBackgroundColor=none;fontColor=default;dashed=1;" parent="1" source="Kh0sasTL_dXiheRaYRA4-6" target="Kh0sasTL_dXiheRaYRA4-86" edge="1">
          <mxGeometry relative="1" as="geometry" />
        </mxCell>
        <mxCell id="Kh0sasTL_dXiheRaYRA4-106" style="edgeStyle=none;rounded=1;orthogonalLoop=1;jettySize=auto;html=1;exitX=0;exitY=1;exitDx=0;exitDy=0;entryX=1;entryY=0;entryDx=0;entryDy=0;labelBackgroundColor=none;fontColor=default;dashed=1;" parent="1" source="Kh0sasTL_dXiheRaYRA4-6" target="Kh0sasTL_dXiheRaYRA4-87" edge="1">
          <mxGeometry relative="1" as="geometry" />
        </mxCell>
        <mxCell id="Kh0sasTL_dXiheRaYRA4-6" value="Изменить фигуру" style="ellipse;whiteSpace=wrap;html=1;labelBackgroundColor=none;rounded=1;" parent="1" vertex="1">
          <mxGeometry x="180" y="220" width="140" height="70" as="geometry" />
        </mxCell>
        <mxCell id="Kh0sasTL_dXiheRaYRA4-19" style="rounded=1;orthogonalLoop=1;jettySize=auto;html=1;exitX=1;exitY=0.5;exitDx=0;exitDy=0;entryX=0;entryY=0.5;entryDx=0;entryDy=0;labelBackgroundColor=none;fontColor=default;dashed=1;" parent="1" source="Kh0sasTL_dXiheRaYRA4-7" target="Kh0sasTL_dXiheRaYRA4-2" edge="1">
          <mxGeometry relative="1" as="geometry" />
        </mxCell>
        <mxCell id="Kh0sasTL_dXiheRaYRA4-36" style="edgeStyle=none;rounded=1;orthogonalLoop=1;jettySize=auto;html=1;exitX=1;exitY=1;exitDx=0;exitDy=0;entryX=0;entryY=0;entryDx=0;entryDy=0;labelBackgroundColor=none;fontColor=default;dashed=1;" parent="1" source="Kh0sasTL_dXiheRaYRA4-7" target="Kh0sasTL_dXiheRaYRA4-5" edge="1">
          <mxGeometry relative="1" as="geometry" />
        </mxCell>
        <mxCell id="nEaaID35jIRw1yTL6WSW-1" style="rounded=0;orthogonalLoop=1;jettySize=auto;html=1;exitX=0.5;exitY=1;exitDx=0;exitDy=0;entryX=0.301;entryY=-0.02;entryDx=0;entryDy=0;entryPerimeter=0;dashed=1;" parent="1" source="Kh0sasTL_dXiheRaYRA4-7" target="Kh0sasTL_dXiheRaYRA4-93" edge="1">
          <mxGeometry relative="1" as="geometry" />
        </mxCell>
        <mxCell id="Kh0sasTL_dXiheRaYRA4-7" value="Выбрать &quot;рисование&quot; фигурами" style="ellipse;whiteSpace=wrap;html=1;labelBackgroundColor=none;rounded=1;" parent="1" vertex="1">
          <mxGeometry x="390" y="50" width="140" height="70" as="geometry" />
        </mxCell>
        <mxCell id="Kh0sasTL_dXiheRaYRA4-98" style="edgeStyle=none;rounded=1;orthogonalLoop=1;jettySize=auto;html=1;exitX=0;exitY=1;exitDx=0;exitDy=0;entryX=1;entryY=0;entryDx=0;entryDy=0;labelBackgroundColor=none;fontColor=default;dashed=1;" parent="1" source="Kh0sasTL_dXiheRaYRA4-8" target="Kh0sasTL_dXiheRaYRA4-88" edge="1">
          <mxGeometry relative="1" as="geometry" />
        </mxCell>
        <mxCell id="Kh0sasTL_dXiheRaYRA4-99" style="edgeStyle=none;rounded=1;orthogonalLoop=1;jettySize=auto;html=1;exitX=0.5;exitY=1;exitDx=0;exitDy=0;entryX=1;entryY=0;entryDx=0;entryDy=0;labelBackgroundColor=none;fontColor=default;dashed=1;" parent="1" source="Kh0sasTL_dXiheRaYRA4-8" target="Kh0sasTL_dXiheRaYRA4-89" edge="1">
          <mxGeometry relative="1" as="geometry" />
        </mxCell>
        <mxCell id="Kh0sasTL_dXiheRaYRA4-100" style="edgeStyle=none;rounded=1;orthogonalLoop=1;jettySize=auto;html=1;exitX=1;exitY=1;exitDx=0;exitDy=0;entryX=1;entryY=0;entryDx=0;entryDy=0;labelBackgroundColor=none;fontColor=default;dashed=1;" parent="1" source="Kh0sasTL_dXiheRaYRA4-8" target="Kh0sasTL_dXiheRaYRA4-90" edge="1">
          <mxGeometry relative="1" as="geometry" />
        </mxCell>
        <mxCell id="Kh0sasTL_dXiheRaYRA4-8" value="Изменить положение фигуры" style="ellipse;whiteSpace=wrap;html=1;labelBackgroundColor=none;rounded=1;" parent="1" vertex="1">
          <mxGeometry x="330" y="440" width="140" height="70" as="geometry" />
        </mxCell>
        <mxCell id="Kh0sasTL_dXiheRaYRA4-29" style="edgeStyle=none;rounded=1;orthogonalLoop=1;jettySize=auto;html=1;exitX=1;exitY=0.5;exitDx=0;exitDy=0;entryX=0;entryY=0.5;entryDx=0;entryDy=0;labelBackgroundColor=none;fontColor=default;dashed=1;" parent="1" source="Kh0sasTL_dXiheRaYRA4-9" target="Kh0sasTL_dXiheRaYRA4-16" edge="1">
          <mxGeometry relative="1" as="geometry" />
        </mxCell>
        <mxCell id="Kh0sasTL_dXiheRaYRA4-111" style="edgeStyle=none;rounded=1;orthogonalLoop=1;jettySize=auto;html=1;exitX=1;exitY=1;exitDx=0;exitDy=0;entryX=0;entryY=0;entryDx=0;entryDy=0;labelBackgroundColor=none;fontColor=default;dashed=1;" parent="1" source="Kh0sasTL_dXiheRaYRA4-9" target="Kh0sasTL_dXiheRaYRA4-110" edge="1">
          <mxGeometry relative="1" as="geometry" />
        </mxCell>
        <mxCell id="Kh0sasTL_dXiheRaYRA4-9" value="Сохранить файл записи" style="ellipse;whiteSpace=wrap;html=1;labelBackgroundColor=none;rounded=1;" parent="1" vertex="1">
          <mxGeometry x="845" y="370" width="140" height="70" as="geometry" />
        </mxCell>
        <mxCell id="Kh0sasTL_dXiheRaYRA4-10" value="Свернуть файл записи" style="ellipse;whiteSpace=wrap;html=1;labelBackgroundColor=none;rounded=1;" parent="1" vertex="1">
          <mxGeometry x="515" y="477" width="140" height="70" as="geometry" />
        </mxCell>
        <mxCell id="Kh0sasTL_dXiheRaYRA4-11" value="Открыть файл записи" style="ellipse;whiteSpace=wrap;html=1;labelBackgroundColor=none;rounded=1;" parent="1" vertex="1">
          <mxGeometry x="810" y="140" width="140" height="70" as="geometry" />
        </mxCell>
        <mxCell id="Kh0sasTL_dXiheRaYRA4-12" value="Закрыть файл записи" style="ellipse;whiteSpace=wrap;html=1;labelBackgroundColor=none;rounded=1;" parent="1" vertex="1">
          <mxGeometry x="740" y="430" width="140" height="70" as="geometry" />
        </mxCell>
        <mxCell id="Kh0sasTL_dXiheRaYRA4-13" value="Выбрать графическую библиотеку для рисования" style="ellipse;whiteSpace=wrap;html=1;labelBackgroundColor=none;rounded=1;" parent="1" vertex="1">
          <mxGeometry x="990" y="170" width="140" height="70" as="geometry" />
        </mxCell>
        <mxCell id="Kh0sasTL_dXiheRaYRA4-14" value="Выбрать &quot;открыть в новом окне&quot;" style="ellipse;whiteSpace=wrap;html=1;labelBackgroundColor=none;rounded=1;" parent="1" vertex="1">
          <mxGeometry x="1027" y="240" width="140" height="70" as="geometry" />
        </mxCell>
        <mxCell id="Kh0sasTL_dXiheRaYRA4-15" value="Выбрать &quot;открыть в этом окне&quot;" style="ellipse;whiteSpace=wrap;html=1;labelBackgroundColor=none;rounded=1;" parent="1" vertex="1">
          <mxGeometry x="990" y="310" width="140" height="70" as="geometry" />
        </mxCell>
        <mxCell id="Kh0sasTL_dXiheRaYRA4-16" value="Сохранить изменения в файле записи" style="ellipse;whiteSpace=wrap;html=1;labelBackgroundColor=none;rounded=1;" parent="1" vertex="1">
          <mxGeometry x="1060" y="380" width="140" height="70" as="geometry" />
        </mxCell>
        <mxCell id="Kh0sasTL_dXiheRaYRA4-20" style="rounded=1;orthogonalLoop=1;jettySize=auto;html=1;exitX=0.5;exitY=0;exitDx=0;exitDy=0;entryX=0.589;entryY=1.027;entryDx=0;entryDy=0;entryPerimeter=0;labelBackgroundColor=none;fontColor=default;dashed=1;" parent="1" source="Kh0sasTL_dXiheRaYRA4-2" target="Kh0sasTL_dXiheRaYRA4-3" edge="1">
          <mxGeometry relative="1" as="geometry" />
        </mxCell>
        <mxCell id="Kh0sasTL_dXiheRaYRA4-40" value="Изменить толщину и цвет линий" style="ellipse;whiteSpace=wrap;html=1;labelBackgroundColor=none;rounded=1;" parent="1" vertex="1">
          <mxGeometry x="40" y="90" width="140" height="70" as="geometry" />
        </mxCell>
        <mxCell id="Kh0sasTL_dXiheRaYRA4-107" style="edgeStyle=none;rounded=1;orthogonalLoop=1;jettySize=auto;html=1;exitX=0;exitY=0;exitDx=0;exitDy=0;entryX=1;entryY=0.5;entryDx=0;entryDy=0;labelBackgroundColor=none;fontColor=default;dashed=1;" parent="1" source="Kh0sasTL_dXiheRaYRA4-83" target="Kh0sasTL_dXiheRaYRA4-84" edge="1">
          <mxGeometry relative="1" as="geometry" />
        </mxCell>
        <mxCell id="Kh0sasTL_dXiheRaYRA4-108" style="edgeStyle=none;rounded=1;orthogonalLoop=1;jettySize=auto;html=1;exitX=0;exitY=1;exitDx=0;exitDy=0;entryX=1;entryY=0.5;entryDx=0;entryDy=0;labelBackgroundColor=none;fontColor=default;dashed=1;" parent="1" source="Kh0sasTL_dXiheRaYRA4-83" target="Kh0sasTL_dXiheRaYRA4-85" edge="1">
          <mxGeometry relative="1" as="geometry" />
        </mxCell>
        <mxCell id="Kh0sasTL_dXiheRaYRA4-83" value="Добавить/Изменить заливку фигуры" style="ellipse;whiteSpace=wrap;html=1;labelBackgroundColor=none;rounded=1;" parent="1" vertex="1">
          <mxGeometry x="-30" y="180" width="140" height="70" as="geometry" />
        </mxCell>
        <mxCell id="Kh0sasTL_dXiheRaYRA4-84" value="Добавить/Изменить заливку цветом" style="ellipse;whiteSpace=wrap;html=1;labelBackgroundColor=none;rounded=1;" parent="1" vertex="1">
          <mxGeometry x="-200" y="110" width="140" height="70" as="geometry" />
        </mxCell>
        <mxCell id="Kh0sasTL_dXiheRaYRA4-85" value="Добавить/Изменить заливку градиентом" style="ellipse;whiteSpace=wrap;html=1;labelBackgroundColor=none;rounded=1;" parent="1" vertex="1">
          <mxGeometry x="-200" y="230" width="140" height="70" as="geometry" />
        </mxCell>
        <mxCell id="Kh0sasTL_dXiheRaYRA4-86" value="Добавить/Изменить рамку фигуры" style="ellipse;whiteSpace=wrap;html=1;labelBackgroundColor=none;rounded=1;" parent="1" vertex="1">
          <mxGeometry x="-30" y="265.93" width="140" height="70" as="geometry" />
        </mxCell>
        <mxCell id="Kh0sasTL_dXiheRaYRA4-87" value="Добавить/Изменить текстуру фигуры" style="ellipse;whiteSpace=wrap;html=1;labelBackgroundColor=none;rounded=1;" parent="1" vertex="1">
          <mxGeometry x="40" y="350" width="140" height="70" as="geometry" />
        </mxCell>
        <mxCell id="Kh0sasTL_dXiheRaYRA4-88" value="Изменить масштаб" style="ellipse;whiteSpace=wrap;html=1;labelBackgroundColor=none;rounded=1;" parent="1" vertex="1">
          <mxGeometry x="150" y="520" width="140" height="70" as="geometry" />
        </mxCell>
        <mxCell id="Kh0sasTL_dXiheRaYRA4-89" value="Изменить расположение" style="ellipse;whiteSpace=wrap;html=1;labelBackgroundColor=none;rounded=1;" parent="1" vertex="1">
          <mxGeometry x="230" y="600" width="140" height="70" as="geometry" />
        </mxCell>
        <mxCell id="Kh0sasTL_dXiheRaYRA4-101" style="edgeStyle=none;rounded=1;orthogonalLoop=1;jettySize=auto;html=1;exitX=0.5;exitY=1;exitDx=0;exitDy=0;entryX=1;entryY=0;entryDx=0;entryDy=0;labelBackgroundColor=none;fontColor=default;dashed=1;" parent="1" source="Kh0sasTL_dXiheRaYRA4-90" target="Kh0sasTL_dXiheRaYRA4-91" edge="1">
          <mxGeometry relative="1" as="geometry" />
        </mxCell>
        <mxCell id="Kh0sasTL_dXiheRaYRA4-102" style="edgeStyle=none;rounded=1;orthogonalLoop=1;jettySize=auto;html=1;exitX=1;exitY=1;exitDx=0;exitDy=0;entryX=0;entryY=0;entryDx=0;entryDy=0;labelBackgroundColor=none;fontColor=default;dashed=1;" parent="1" source="Kh0sasTL_dXiheRaYRA4-90" target="Kh0sasTL_dXiheRaYRA4-92" edge="1">
          <mxGeometry relative="1" as="geometry" />
        </mxCell>
        <mxCell id="Kh0sasTL_dXiheRaYRA4-90" value="Повернуть" style="ellipse;whiteSpace=wrap;html=1;labelBackgroundColor=none;rounded=1;" parent="1" vertex="1">
          <mxGeometry x="400" y="600" width="140" height="70" as="geometry" />
        </mxCell>
        <mxCell id="Kh0sasTL_dXiheRaYRA4-91" value="Повернуть фигуру относительно центра фигуры" style="ellipse;whiteSpace=wrap;html=1;labelBackgroundColor=none;rounded=1;" parent="1" vertex="1">
          <mxGeometry x="340" y="700" width="140" height="70" as="geometry" />
        </mxCell>
        <mxCell id="Kh0sasTL_dXiheRaYRA4-92" value="Повернуть фигуру относительно точки вне фигуры" style="ellipse;whiteSpace=wrap;html=1;labelBackgroundColor=none;rounded=1;" parent="1" vertex="1">
          <mxGeometry x="530" y="680" width="140" height="70" as="geometry" />
        </mxCell>
        <mxCell id="Kh0sasTL_dXiheRaYRA4-96" style="edgeStyle=none;rounded=1;orthogonalLoop=1;jettySize=auto;html=1;exitX=0;exitY=0;exitDx=0;exitDy=0;entryX=1;entryY=1;entryDx=0;entryDy=0;labelBackgroundColor=none;fontColor=default;dashed=1;" parent="1" source="Kh0sasTL_dXiheRaYRA4-93" target="Kh0sasTL_dXiheRaYRA4-6" edge="1">
          <mxGeometry relative="1" as="geometry" />
        </mxCell>
        <mxCell id="Kh0sasTL_dXiheRaYRA4-97" style="edgeStyle=none;rounded=1;orthogonalLoop=1;jettySize=auto;html=1;exitX=0;exitY=1;exitDx=0;exitDy=0;entryX=0.5;entryY=0;entryDx=0;entryDy=0;labelBackgroundColor=none;fontColor=default;dashed=1;" parent="1" source="Kh0sasTL_dXiheRaYRA4-93" target="Kh0sasTL_dXiheRaYRA4-8" edge="1">
          <mxGeometry relative="1" as="geometry" />
        </mxCell>
        <mxCell id="Kh0sasTL_dXiheRaYRA4-93" value="Выбрать фигуру/фигуры" style="ellipse;whiteSpace=wrap;html=1;labelBackgroundColor=none;rounded=1;" parent="1" vertex="1">
          <mxGeometry x="390" y="290" width="140" height="70" as="geometry" />
        </mxCell>
        <mxCell id="Kh0sasTL_dXiheRaYRA4-110" value="Выбрать формат сохранения" style="ellipse;whiteSpace=wrap;html=1;labelBackgroundColor=none;rounded=1;" parent="1" vertex="1">
          <mxGeometry x="990" y="465.93" width="140" height="70" as="geometry" />
        </mxCell>
        <mxCell id="419LSJw8-XE0xrJgcBc3-1" value="Удалить файл" style="ellipse;whiteSpace=wrap;html=1;labelBackgroundColor=none;rounded=1;" parent="1" vertex="1">
          <mxGeometry x="662" y="535.9300000000001" width="140" height="70" as="geometry" />
        </mxCell>
        <mxCell id="419LSJw8-XE0xrJgcBc3-2" style="edgeStyle=none;rounded=1;orthogonalLoop=1;jettySize=auto;html=1;exitX=0.5;exitY=0.5;exitDx=0;exitDy=0;exitPerimeter=0;entryX=0.5;entryY=0;entryDx=0;entryDy=0;labelBackgroundColor=none;fontColor=default;" parent="1" source="oxRBoDqXkXfbxjHfXgDR-1" target="419LSJw8-XE0xrJgcBc3-1" edge="1">
          <mxGeometry relative="1" as="geometry">
            <mxPoint x="643" y="338" as="sourcePoint" />
            <mxPoint x="789" y="468" as="targetPoint" />
          </mxGeometry>
        </mxCell>
      </root>
    </mxGraphModel>
  </diagram>
  <diagram id="PyrKMpu_ycwQ3cg3S3u5" name="ДП">
    <mxGraphModel dx="746" dy="457" grid="1" gridSize="10" guides="1" tooltips="1" connect="1" arrows="1" fold="1" page="1" pageScale="1" pageWidth="827" pageHeight="1169" math="0" shadow="0">
      <root>
        <mxCell id="0" />
        <mxCell id="1" parent="0" />
        <mxCell id="bDWF1SQXs8SLrWMLZSUX-2" style="edgeStyle=none;rounded=0;orthogonalLoop=1;jettySize=auto;html=1;exitX=0.5;exitY=0.5;exitDx=0;exitDy=0;exitPerimeter=0;endArrow=none;endFill=0;dashed=1;" parent="1" source="nb-kfdWa5h6-bXmlmSGa-47" edge="1">
          <mxGeometry relative="1" as="geometry">
            <mxPoint x="76" y="1060" as="targetPoint" />
          </mxGeometry>
        </mxCell>
        <mxCell id="RD_BeHo5g6DlWTZ0ci5n-1" value="Пользователь" style="shape=umlActor;verticalLabelPosition=bottom;verticalAlign=top;html=1;" parent="1" vertex="1">
          <mxGeometry x="60" y="160" width="30" height="60" as="geometry" />
        </mxCell>
        <mxCell id="RD_BeHo5g6DlWTZ0ci5n-18" value="загрузка и запуск&lt;br&gt;граф.библиотеки" style="html=1;align=left;spacingLeft=2;endArrow=block;rounded=0;edgeStyle=orthogonalEdgeStyle;curved=0;rounded=0;" parent="1" edge="1">
          <mxGeometry relative="1" as="geometry">
            <mxPoint x="365" y="409.92" as="sourcePoint" />
            <Array as="points">
              <mxPoint x="395" y="439.91999999999996" />
            </Array>
            <mxPoint x="370" y="439.97882352941167" as="targetPoint" />
          </mxGeometry>
        </mxCell>
        <mxCell id="bDWF1SQXs8SLrWMLZSUX-3" style="edgeStyle=none;rounded=0;orthogonalLoop=1;jettySize=auto;html=1;exitX=0.5;exitY=1;exitDx=0;exitDy=0;dashed=1;endArrow=none;endFill=0;" parent="1" source="nb-kfdWa5h6-bXmlmSGa-49" edge="1">
          <mxGeometry relative="1" as="geometry">
            <mxPoint x="200" y="1060" as="targetPoint" />
          </mxGeometry>
        </mxCell>
        <mxCell id="F0in1F5rgaErxLPaR_0D-1" value="Файл" style="rounded=0;whiteSpace=wrap;html=1;" parent="1" vertex="1">
          <mxGeometry x="140" y="160" width="120" height="60" as="geometry" />
        </mxCell>
        <mxCell id="F0in1F5rgaErxLPaR_0D-2" value="Граф.Редактор" style="rounded=0;whiteSpace=wrap;html=1;" parent="1" vertex="1">
          <mxGeometry x="300" y="160" width="120" height="60" as="geometry" />
        </mxCell>
        <mxCell id="F0in1F5rgaErxLPaR_0D-3" value="Область рисования" style="rounded=0;whiteSpace=wrap;html=1;" parent="1" vertex="1">
          <mxGeometry x="460" y="160" width="120" height="60" as="geometry" />
        </mxCell>
        <mxCell id="bDWF1SQXs8SLrWMLZSUX-1" value="Объект" style="rounded=0;whiteSpace=wrap;html=1;" parent="1" vertex="1">
          <mxGeometry x="620" y="160" width="120" height="60" as="geometry" />
        </mxCell>
        <mxCell id="bDWF1SQXs8SLrWMLZSUX-5" style="edgeStyle=none;rounded=0;orthogonalLoop=1;jettySize=auto;html=1;exitX=0.5;exitY=1;exitDx=0;exitDy=0;dashed=1;endArrow=none;endFill=0;" parent="1" source="nb-kfdWa5h6-bXmlmSGa-33" edge="1">
          <mxGeometry relative="1" as="geometry">
            <mxPoint x="360" y="1060" as="targetPoint" />
            <mxPoint x="210" y="230" as="sourcePoint" />
          </mxGeometry>
        </mxCell>
        <mxCell id="bDWF1SQXs8SLrWMLZSUX-6" style="edgeStyle=none;rounded=0;orthogonalLoop=1;jettySize=auto;html=1;exitX=0.5;exitY=1;exitDx=0;exitDy=0;dashed=1;endArrow=none;endFill=0;" parent="1" source="nb-kfdWa5h6-bXmlmSGa-13" edge="1">
          <mxGeometry relative="1" as="geometry">
            <mxPoint x="520" y="1060" as="targetPoint" />
            <mxPoint x="370" y="230" as="sourcePoint" />
          </mxGeometry>
        </mxCell>
        <mxCell id="bDWF1SQXs8SLrWMLZSUX-7" style="edgeStyle=none;rounded=0;orthogonalLoop=1;jettySize=auto;html=1;exitX=0.5;exitY=1;exitDx=0;exitDy=0;dashed=1;endArrow=none;endFill=0;" parent="1" source="nb-kfdWa5h6-bXmlmSGa-29" edge="1">
          <mxGeometry relative="1" as="geometry">
            <mxPoint x="680" y="1060" as="targetPoint" />
            <mxPoint x="530" y="230" as="sourcePoint" />
          </mxGeometry>
        </mxCell>
        <mxCell id="bDWF1SQXs8SLrWMLZSUX-9" value="" style="edgeStyle=none;rounded=0;orthogonalLoop=1;jettySize=auto;html=1;exitX=0.5;exitY=0.5;exitDx=0;exitDy=0;exitPerimeter=0;endArrow=none;endFill=0;dashed=1;" parent="1" source="RD_BeHo5g6DlWTZ0ci5n-1" target="bDWF1SQXs8SLrWMLZSUX-8" edge="1">
          <mxGeometry relative="1" as="geometry">
            <mxPoint x="76" y="780" as="targetPoint" />
            <mxPoint x="75" y="190" as="sourcePoint" />
          </mxGeometry>
        </mxCell>
        <mxCell id="bDWF1SQXs8SLrWMLZSUX-16" style="edgeStyle=none;rounded=0;orthogonalLoop=1;jettySize=auto;html=1;curved=0;" parent="1" edge="1">
          <mxGeometry relative="1" as="geometry">
            <mxPoint x="85" y="320" as="sourcePoint" />
            <mxPoint x="190" y="320" as="targetPoint" />
          </mxGeometry>
        </mxCell>
        <mxCell id="bDWF1SQXs8SLrWMLZSUX-12" value="" style="edgeStyle=none;rounded=0;orthogonalLoop=1;jettySize=auto;html=1;exitX=0.5;exitY=1;exitDx=0;exitDy=0;dashed=1;endArrow=none;endFill=0;" parent="1" source="F0in1F5rgaErxLPaR_0D-1" target="bDWF1SQXs8SLrWMLZSUX-11" edge="1">
          <mxGeometry relative="1" as="geometry">
            <mxPoint x="200" y="780" as="targetPoint" />
            <mxPoint x="200" y="220" as="sourcePoint" />
          </mxGeometry>
        </mxCell>
        <mxCell id="bDWF1SQXs8SLrWMLZSUX-11" value="" style="html=1;points=[[0,0,0,0,5],[0,1,0,0,-5],[1,0,0,0,5],[1,1,0,0,-5]];perimeter=orthogonalPerimeter;outlineConnect=0;targetShapes=umlLifeline;portConstraint=eastwest;newEdgeStyle={&quot;curved&quot;:0,&quot;rounded&quot;:0};" parent="1" vertex="1">
          <mxGeometry x="195" y="260" width="10" height="140" as="geometry" />
        </mxCell>
        <mxCell id="bDWF1SQXs8SLrWMLZSUX-14" value="создать файл" style="text;html=1;align=center;verticalAlign=middle;resizable=0;points=[];autosize=1;strokeColor=none;fillColor=none;" parent="1" vertex="1">
          <mxGeometry x="80" y="246" width="100" height="30" as="geometry" />
        </mxCell>
        <mxCell id="bDWF1SQXs8SLrWMLZSUX-15" value="открыть файл" style="text;html=1;align=center;verticalAlign=middle;resizable=0;points=[];autosize=1;strokeColor=none;fillColor=none;" parent="1" vertex="1">
          <mxGeometry x="90" y="360" width="100" height="30" as="geometry" />
        </mxCell>
        <mxCell id="bDWF1SQXs8SLrWMLZSUX-17" style="edgeStyle=none;rounded=0;orthogonalLoop=1;jettySize=auto;html=1;curved=0;" parent="1" edge="1">
          <mxGeometry relative="1" as="geometry">
            <mxPoint x="85" y="270" as="sourcePoint" />
            <mxPoint x="190" y="270" as="targetPoint" />
          </mxGeometry>
        </mxCell>
        <mxCell id="bDWF1SQXs8SLrWMLZSUX-19" value="" style="edgeStyle=none;rounded=0;orthogonalLoop=1;jettySize=auto;html=1;exitX=0.5;exitY=1;exitDx=0;exitDy=0;dashed=1;endArrow=none;endFill=0;" parent="1" source="F0in1F5rgaErxLPaR_0D-2" target="bDWF1SQXs8SLrWMLZSUX-18" edge="1">
          <mxGeometry relative="1" as="geometry">
            <mxPoint x="360" y="780" as="targetPoint" />
            <mxPoint x="360" y="220" as="sourcePoint" />
          </mxGeometry>
        </mxCell>
        <mxCell id="bDWF1SQXs8SLrWMLZSUX-18" value="" style="html=1;points=[[0,0,0,0,5],[0,1,0,0,-5],[1,0,0,0,5],[1,1,0,0,-5]];perimeter=orthogonalPerimeter;outlineConnect=0;targetShapes=umlLifeline;portConstraint=eastwest;newEdgeStyle={&quot;curved&quot;:0,&quot;rounded&quot;:0};" parent="1" vertex="1">
          <mxGeometry x="355" y="380" width="10" height="80" as="geometry" />
        </mxCell>
        <mxCell id="nb-kfdWa5h6-bXmlmSGa-1" style="edgeStyle=none;rounded=0;orthogonalLoop=1;jettySize=auto;html=1;curved=0;" parent="1" edge="1">
          <mxGeometry relative="1" as="geometry">
            <mxPoint x="85" y="390" as="sourcePoint" />
            <mxPoint x="190" y="390" as="targetPoint" />
          </mxGeometry>
        </mxCell>
        <mxCell id="nb-kfdWa5h6-bXmlmSGa-2" value="выбрать &lt;br&gt;&lt;br&gt;граф.библиотеку" style="text;html=1;align=center;verticalAlign=middle;resizable=0;points=[];autosize=1;strokeColor=none;fillColor=none;" parent="1" vertex="1">
          <mxGeometry x="75" y="290" width="120" height="60" as="geometry" />
        </mxCell>
        <mxCell id="nb-kfdWa5h6-bXmlmSGa-5" style="edgeStyle=none;rounded=0;orthogonalLoop=1;jettySize=auto;html=1;curved=0;" parent="1" edge="1">
          <mxGeometry relative="1" as="geometry">
            <mxPoint x="210" y="392" as="sourcePoint" />
            <mxPoint x="355" y="392" as="targetPoint" />
          </mxGeometry>
        </mxCell>
        <mxCell id="nb-kfdWa5h6-bXmlmSGa-6" value="Запуск граф.редактора" style="text;html=1;align=center;verticalAlign=middle;resizable=0;points=[];autosize=1;strokeColor=none;fillColor=none;" parent="1" vertex="1">
          <mxGeometry x="205" y="360" width="150" height="30" as="geometry" />
        </mxCell>
        <mxCell id="nb-kfdWa5h6-bXmlmSGa-8" value="" style="edgeStyle=none;rounded=0;orthogonalLoop=1;jettySize=auto;html=1;exitX=0.5;exitY=1;exitDx=0;exitDy=0;dashed=1;endArrow=none;endFill=0;" parent="1" source="bDWF1SQXs8SLrWMLZSUX-1" target="nb-kfdWa5h6-bXmlmSGa-7" edge="1">
          <mxGeometry relative="1" as="geometry">
            <mxPoint x="690" y="780" as="targetPoint" />
            <mxPoint x="680" y="220" as="sourcePoint" />
          </mxGeometry>
        </mxCell>
        <mxCell id="nb-kfdWa5h6-bXmlmSGa-7" value="" style="html=1;points=[[0,0,0,0,5],[0,1,0,0,-5],[1,0,0,0,5],[1,1,0,0,-5]];perimeter=orthogonalPerimeter;outlineConnect=0;targetShapes=umlLifeline;portConstraint=eastwest;newEdgeStyle={&quot;curved&quot;:0,&quot;rounded&quot;:0};" parent="1" vertex="1">
          <mxGeometry x="675" y="460" width="10" height="200" as="geometry" />
        </mxCell>
        <mxCell id="nb-kfdWa5h6-bXmlmSGa-9" style="edgeStyle=none;rounded=0;orthogonalLoop=1;jettySize=auto;html=1;curved=0;" parent="1" edge="1">
          <mxGeometry relative="1" as="geometry">
            <mxPoint x="85" y="470" as="sourcePoint" />
            <mxPoint x="670" y="470" as="targetPoint" />
          </mxGeometry>
        </mxCell>
        <mxCell id="nb-kfdWa5h6-bXmlmSGa-10" value="Выбрать фигуру" style="text;html=1;align=center;verticalAlign=middle;resizable=0;points=[];autosize=1;strokeColor=none;fillColor=none;" parent="1" vertex="1">
          <mxGeometry x="85" y="445" width="110" height="30" as="geometry" />
        </mxCell>
        <mxCell id="nb-kfdWa5h6-bXmlmSGa-12" value="" style="edgeStyle=none;rounded=0;orthogonalLoop=1;jettySize=auto;html=1;exitX=0.5;exitY=1;exitDx=0;exitDy=0;dashed=1;endArrow=none;endFill=0;" parent="1" source="bDWF1SQXs8SLrWMLZSUX-18" target="nb-kfdWa5h6-bXmlmSGa-11" edge="1">
          <mxGeometry relative="1" as="geometry">
            <mxPoint x="360" y="780" as="targetPoint" />
            <mxPoint x="360" y="460" as="sourcePoint" />
          </mxGeometry>
        </mxCell>
        <mxCell id="nb-kfdWa5h6-bXmlmSGa-20" style="edgeStyle=none;rounded=0;orthogonalLoop=1;jettySize=auto;html=1;curved=0;exitX=1;exitY=1;exitDx=0;exitDy=-5;exitPerimeter=0;" parent="1" source="nb-kfdWa5h6-bXmlmSGa-11" target="nb-kfdWa5h6-bXmlmSGa-13" edge="1">
          <mxGeometry relative="1" as="geometry" />
        </mxCell>
        <mxCell id="nb-kfdWa5h6-bXmlmSGa-11" value="" style="html=1;points=[[0,0,0,0,5],[0,1,0,0,-5],[1,0,0,0,5],[1,1,0,0,-5]];perimeter=orthogonalPerimeter;outlineConnect=0;targetShapes=umlLifeline;portConstraint=eastwest;newEdgeStyle={&quot;curved&quot;:0,&quot;rounded&quot;:0};" parent="1" vertex="1">
          <mxGeometry x="355" y="490" width="10" height="140" as="geometry" />
        </mxCell>
        <mxCell id="nb-kfdWa5h6-bXmlmSGa-14" value="" style="edgeStyle=none;rounded=0;orthogonalLoop=1;jettySize=auto;html=1;exitX=0.5;exitY=1;exitDx=0;exitDy=0;dashed=1;endArrow=none;endFill=0;" parent="1" source="F0in1F5rgaErxLPaR_0D-3" target="nb-kfdWa5h6-bXmlmSGa-13" edge="1">
          <mxGeometry relative="1" as="geometry">
            <mxPoint x="520" y="780" as="targetPoint" />
            <mxPoint x="520" y="220" as="sourcePoint" />
          </mxGeometry>
        </mxCell>
        <mxCell id="nb-kfdWa5h6-bXmlmSGa-13" value="" style="html=1;points=[[0,0,0,0,5],[0,1,0,0,-5],[1,0,0,0,5],[1,1,0,0,-5]];perimeter=orthogonalPerimeter;outlineConnect=0;targetShapes=umlLifeline;portConstraint=eastwest;newEdgeStyle={&quot;curved&quot;:0,&quot;rounded&quot;:0};" parent="1" vertex="1">
          <mxGeometry x="515" y="590" width="10" height="80" as="geometry" />
        </mxCell>
        <mxCell id="nb-kfdWa5h6-bXmlmSGa-17" style="edgeStyle=none;rounded=0;orthogonalLoop=1;jettySize=auto;html=1;curved=0;" parent="1" edge="1">
          <mxGeometry relative="1" as="geometry">
            <mxPoint x="675" y="520" as="sourcePoint" />
            <mxPoint x="370" y="520" as="targetPoint" />
          </mxGeometry>
        </mxCell>
        <mxCell id="nb-kfdWa5h6-bXmlmSGa-18" value="Передача параметров фигуры" style="text;html=1;align=center;verticalAlign=middle;resizable=0;points=[];autosize=1;strokeColor=none;fillColor=none;" parent="1" vertex="1">
          <mxGeometry x="480" y="485" width="190" height="30" as="geometry" />
        </mxCell>
        <mxCell id="nb-kfdWa5h6-bXmlmSGa-19" value="Отрисовка фигуры" style="html=1;align=left;spacingLeft=2;endArrow=block;rounded=0;edgeStyle=orthogonalEdgeStyle;curved=0;rounded=0;" parent="1" edge="1">
          <mxGeometry relative="1" as="geometry">
            <mxPoint x="365" y="540.0000000000001" as="sourcePoint" />
            <Array as="points">
              <mxPoint x="395" y="570" />
            </Array>
            <mxPoint x="370" y="570.0588235294117" as="targetPoint" />
          </mxGeometry>
        </mxCell>
        <mxCell id="nb-kfdWa5h6-bXmlmSGa-21" value="передача данных &lt;br&gt;для отображения&lt;br&gt;на области рисования" style="text;html=1;align=center;verticalAlign=middle;resizable=0;points=[];autosize=1;strokeColor=none;fillColor=none;" parent="1" vertex="1">
          <mxGeometry x="355" y="570" width="150" height="60" as="geometry" />
        </mxCell>
        <mxCell id="nb-kfdWa5h6-bXmlmSGa-23" style="edgeStyle=none;rounded=0;orthogonalLoop=1;jettySize=auto;html=1;curved=0;" parent="1" edge="1">
          <mxGeometry relative="1" as="geometry">
            <mxPoint x="85" y="720" as="sourcePoint" />
            <mxPoint x="670" y="720" as="targetPoint" />
          </mxGeometry>
        </mxCell>
        <mxCell id="nb-kfdWa5h6-bXmlmSGa-25" value="" style="edgeStyle=none;rounded=0;orthogonalLoop=1;jettySize=auto;html=1;exitX=0.5;exitY=0.5;exitDx=0;exitDy=0;exitPerimeter=0;endArrow=none;endFill=0;dashed=1;" parent="1" source="bDWF1SQXs8SLrWMLZSUX-8" target="nb-kfdWa5h6-bXmlmSGa-24" edge="1">
          <mxGeometry relative="1" as="geometry">
            <mxPoint x="76" y="780" as="targetPoint" />
            <mxPoint x="75" y="345" as="sourcePoint" />
          </mxGeometry>
        </mxCell>
        <mxCell id="nb-kfdWa5h6-bXmlmSGa-24" value="" style="html=1;points=[[0,0,0,0,5],[0,1,0,0,-5],[1,0,0,0,5],[1,1,0,0,-5]];perimeter=orthogonalPerimeter;outlineConnect=0;targetShapes=umlLifeline;portConstraint=eastwest;newEdgeStyle={&quot;curved&quot;:0,&quot;rounded&quot;:0};" parent="1" vertex="1">
          <mxGeometry x="70" y="455" width="10" height="155" as="geometry" />
        </mxCell>
        <mxCell id="bDWF1SQXs8SLrWMLZSUX-8" value="" style="html=1;points=[[0,0,0,0,5],[0,1,0,0,-5],[1,0,0,0,5],[1,1,0,0,-5]];perimeter=orthogonalPerimeter;outlineConnect=0;targetShapes=umlLifeline;portConstraint=eastwest;newEdgeStyle={&quot;curved&quot;:0,&quot;rounded&quot;:0};" parent="1" vertex="1">
          <mxGeometry x="70" y="250" width="10" height="190" as="geometry" />
        </mxCell>
        <mxCell id="nb-kfdWa5h6-bXmlmSGa-28" value="" style="edgeStyle=none;rounded=0;orthogonalLoop=1;jettySize=auto;html=1;exitX=0.5;exitY=0.5;exitDx=0;exitDy=0;exitPerimeter=0;endArrow=none;endFill=0;dashed=1;" parent="1" source="nb-kfdWa5h6-bXmlmSGa-24" target="nb-kfdWa5h6-bXmlmSGa-26" edge="1">
          <mxGeometry relative="1" as="geometry">
            <mxPoint x="76" y="900" as="targetPoint" />
            <mxPoint x="75" y="532" as="sourcePoint" />
          </mxGeometry>
        </mxCell>
        <mxCell id="nb-kfdWa5h6-bXmlmSGa-26" value="" style="html=1;points=[[0,0,0,0,5],[0,1,0,0,-5],[1,0,0,0,5],[1,1,0,0,-5]];perimeter=orthogonalPerimeter;outlineConnect=0;targetShapes=umlLifeline;portConstraint=eastwest;newEdgeStyle={&quot;curved&quot;:0,&quot;rounded&quot;:0};" parent="1" vertex="1">
          <mxGeometry x="70" y="690" width="10" height="155" as="geometry" />
        </mxCell>
        <mxCell id="nb-kfdWa5h6-bXmlmSGa-30" value="" style="edgeStyle=none;rounded=0;orthogonalLoop=1;jettySize=auto;html=1;exitX=0.5;exitY=1;exitDx=0;exitDy=0;dashed=1;endArrow=none;endFill=0;" parent="1" source="nb-kfdWa5h6-bXmlmSGa-7" target="nb-kfdWa5h6-bXmlmSGa-29" edge="1">
          <mxGeometry relative="1" as="geometry">
            <mxPoint x="680" y="900" as="targetPoint" />
            <mxPoint x="680" y="660" as="sourcePoint" />
          </mxGeometry>
        </mxCell>
        <mxCell id="nb-kfdWa5h6-bXmlmSGa-29" value="" style="html=1;points=[[0,0,0,0,5],[0,1,0,0,-5],[1,0,0,0,5],[1,1,0,0,-5]];perimeter=orthogonalPerimeter;outlineConnect=0;targetShapes=umlLifeline;portConstraint=eastwest;newEdgeStyle={&quot;curved&quot;:0,&quot;rounded&quot;:0};" parent="1" vertex="1">
          <mxGeometry x="675" y="710" width="10" height="155" as="geometry" />
        </mxCell>
        <mxCell id="nb-kfdWa5h6-bXmlmSGa-31" value="Выбрать&amp;nbsp;фигуру" style="text;html=1;align=center;verticalAlign=middle;resizable=0;points=[];autosize=1;strokeColor=none;fillColor=none;" parent="1" vertex="1">
          <mxGeometry x="85" y="698" width="110" height="30" as="geometry" />
        </mxCell>
        <mxCell id="nb-kfdWa5h6-bXmlmSGa-34" value="" style="edgeStyle=none;rounded=0;orthogonalLoop=1;jettySize=auto;html=1;exitX=0.5;exitY=1;exitDx=0;exitDy=0;dashed=1;endArrow=none;endFill=0;" parent="1" source="nb-kfdWa5h6-bXmlmSGa-11" target="nb-kfdWa5h6-bXmlmSGa-33" edge="1">
          <mxGeometry relative="1" as="geometry">
            <mxPoint x="360" y="900" as="targetPoint" />
            <mxPoint x="360" y="630" as="sourcePoint" />
          </mxGeometry>
        </mxCell>
        <mxCell id="nb-kfdWa5h6-bXmlmSGa-33" value="" style="html=1;points=[[0,0,0,0,5],[0,1,0,0,-5],[1,0,0,0,5],[1,1,0,0,-5]];perimeter=orthogonalPerimeter;outlineConnect=0;targetShapes=umlLifeline;portConstraint=eastwest;newEdgeStyle={&quot;curved&quot;:0,&quot;rounded&quot;:0};" parent="1" vertex="1">
          <mxGeometry x="355" y="740" width="10" height="200" as="geometry" />
        </mxCell>
        <mxCell id="nb-kfdWa5h6-bXmlmSGa-35" style="edgeStyle=none;rounded=0;orthogonalLoop=1;jettySize=auto;html=1;curved=0;" parent="1" edge="1">
          <mxGeometry relative="1" as="geometry">
            <mxPoint x="672.5" y="750" as="sourcePoint" />
            <mxPoint x="367.5" y="750" as="targetPoint" />
          </mxGeometry>
        </mxCell>
        <mxCell id="nb-kfdWa5h6-bXmlmSGa-36" value="Передача параметров фигуры" style="text;html=1;align=center;verticalAlign=middle;resizable=0;points=[];autosize=1;strokeColor=none;fillColor=none;" parent="1" vertex="1">
          <mxGeometry x="440" y="730" width="190" height="30" as="geometry" />
        </mxCell>
        <mxCell id="nb-kfdWa5h6-bXmlmSGa-37" style="edgeStyle=none;rounded=0;orthogonalLoop=1;jettySize=auto;html=1;curved=0;" parent="1" edge="1">
          <mxGeometry relative="1" as="geometry">
            <mxPoint x="85" y="766.97" as="sourcePoint" />
            <mxPoint x="340" y="767" as="targetPoint" />
          </mxGeometry>
        </mxCell>
        <mxCell id="nb-kfdWa5h6-bXmlmSGa-38" value="Выбрать параметры для иземения" style="text;html=1;align=center;verticalAlign=middle;resizable=0;points=[];autosize=1;strokeColor=none;fillColor=none;" parent="1" vertex="1">
          <mxGeometry x="80" y="740" width="220" height="30" as="geometry" />
        </mxCell>
        <mxCell id="nb-kfdWa5h6-bXmlmSGa-39" style="edgeStyle=none;rounded=0;orthogonalLoop=1;jettySize=auto;html=1;curved=0;" parent="1" edge="1">
          <mxGeometry relative="1" as="geometry">
            <mxPoint x="85" y="800" as="sourcePoint" />
            <mxPoint x="340" y="800.03" as="targetPoint" />
          </mxGeometry>
        </mxCell>
        <mxCell id="nb-kfdWa5h6-bXmlmSGa-40" value="Внести изменения" style="text;html=1;align=center;verticalAlign=middle;resizable=0;points=[];autosize=1;strokeColor=none;fillColor=none;" parent="1" vertex="1">
          <mxGeometry x="125" y="772.5" width="130" height="30" as="geometry" />
        </mxCell>
        <mxCell id="nb-kfdWa5h6-bXmlmSGa-41" value="Прогрузка изменений" style="html=1;align=left;spacingLeft=2;endArrow=block;rounded=0;edgeStyle=orthogonalEdgeStyle;curved=0;rounded=0;" parent="1" edge="1">
          <mxGeometry relative="1" as="geometry">
            <mxPoint x="365" y="814.94" as="sourcePoint" />
            <Array as="points">
              <mxPoint x="395" y="844.94" />
            </Array>
            <mxPoint x="370" y="844.9988235294118" as="targetPoint" />
          </mxGeometry>
        </mxCell>
        <mxCell id="nb-kfdWa5h6-bXmlmSGa-43" value="" style="html=1;points=[[0,0,0,0,5],[0,1,0,0,-5],[1,0,0,0,5],[1,1,0,0,-5]];perimeter=orthogonalPerimeter;outlineConnect=0;targetShapes=umlLifeline;portConstraint=eastwest;newEdgeStyle={&quot;curved&quot;:0,&quot;rounded&quot;:0};" parent="1" vertex="1">
          <mxGeometry x="515" y="850" width="10" height="110" as="geometry" />
        </mxCell>
        <mxCell id="nb-kfdWa5h6-bXmlmSGa-44" value="передача данных &lt;br&gt;для отображения&lt;br&gt;на области рисования" style="text;html=1;align=center;verticalAlign=middle;resizable=0;points=[];autosize=1;strokeColor=none;fillColor=none;" parent="1" vertex="1">
          <mxGeometry x="365" y="850" width="150" height="60" as="geometry" />
        </mxCell>
        <mxCell id="nb-kfdWa5h6-bXmlmSGa-45" style="edgeStyle=none;rounded=0;orthogonalLoop=1;jettySize=auto;html=1;curved=0;exitX=1;exitY=1;exitDx=0;exitDy=-5;exitPerimeter=0;" parent="1" edge="1">
          <mxGeometry relative="1" as="geometry">
            <mxPoint x="365" y="910" as="sourcePoint" />
            <mxPoint x="515" y="910" as="targetPoint" />
          </mxGeometry>
        </mxCell>
        <mxCell id="nb-kfdWa5h6-bXmlmSGa-48" value="" style="edgeStyle=none;rounded=0;orthogonalLoop=1;jettySize=auto;html=1;exitX=0.5;exitY=0.5;exitDx=0;exitDy=0;exitPerimeter=0;endArrow=none;endFill=0;dashed=1;" parent="1" source="nb-kfdWa5h6-bXmlmSGa-26" target="nb-kfdWa5h6-bXmlmSGa-47" edge="1">
          <mxGeometry relative="1" as="geometry">
            <mxPoint x="76" y="1060" as="targetPoint" />
            <mxPoint x="75" y="768" as="sourcePoint" />
          </mxGeometry>
        </mxCell>
        <mxCell id="nb-kfdWa5h6-bXmlmSGa-47" value="" style="html=1;points=[[0,0,0,0,5],[0,1,0,0,-5],[1,0,0,0,5],[1,1,0,0,-5]];perimeter=orthogonalPerimeter;outlineConnect=0;targetShapes=umlLifeline;portConstraint=eastwest;newEdgeStyle={&quot;curved&quot;:0,&quot;rounded&quot;:0};" parent="1" vertex="1">
          <mxGeometry x="70" y="930" width="10" height="90" as="geometry" />
        </mxCell>
        <mxCell id="nb-kfdWa5h6-bXmlmSGa-50" value="" style="edgeStyle=none;rounded=0;orthogonalLoop=1;jettySize=auto;html=1;exitX=0.5;exitY=1;exitDx=0;exitDy=0;dashed=1;endArrow=none;endFill=0;" parent="1" source="bDWF1SQXs8SLrWMLZSUX-11" target="nb-kfdWa5h6-bXmlmSGa-49" edge="1">
          <mxGeometry relative="1" as="geometry">
            <mxPoint x="200" y="1060" as="targetPoint" />
            <mxPoint x="200" y="400" as="sourcePoint" />
          </mxGeometry>
        </mxCell>
        <mxCell id="nb-kfdWa5h6-bXmlmSGa-49" value="" style="html=1;points=[[0,0,0,0,5],[0,1,0,0,-5],[1,0,0,0,5],[1,1,0,0,-5]];perimeter=orthogonalPerimeter;outlineConnect=0;targetShapes=umlLifeline;portConstraint=eastwest;newEdgeStyle={&quot;curved&quot;:0,&quot;rounded&quot;:0};" parent="1" vertex="1">
          <mxGeometry x="195" y="930" width="10" height="90" as="geometry" />
        </mxCell>
        <mxCell id="nb-kfdWa5h6-bXmlmSGa-51" style="edgeStyle=none;rounded=0;orthogonalLoop=1;jettySize=auto;html=1;curved=0;" parent="1" edge="1">
          <mxGeometry relative="1" as="geometry">
            <mxPoint x="85" y="950" as="sourcePoint" />
            <mxPoint x="190" y="950" as="targetPoint" />
          </mxGeometry>
        </mxCell>
        <mxCell id="nb-kfdWa5h6-bXmlmSGa-52" value="Сохранить Файл" style="text;html=1;align=center;verticalAlign=middle;resizable=0;points=[];autosize=1;strokeColor=none;fillColor=none;" parent="1" vertex="1">
          <mxGeometry x="75" y="918" width="120" height="30" as="geometry" />
        </mxCell>
        <mxCell id="nb-kfdWa5h6-bXmlmSGa-53" value="Запись изменений" style="html=1;align=left;spacingLeft=2;endArrow=block;rounded=0;edgeStyle=orthogonalEdgeStyle;curved=0;rounded=0;" parent="1" edge="1">
          <mxGeometry relative="1" as="geometry">
            <mxPoint x="205" y="959.99" as="sourcePoint" />
            <Array as="points">
              <mxPoint x="235" y="989.99" />
            </Array>
            <mxPoint x="210" y="990.0488235294117" as="targetPoint" />
          </mxGeometry>
        </mxCell>
        <mxCell id="nb-kfdWa5h6-bXmlmSGa-54" style="edgeStyle=none;rounded=0;orthogonalLoop=1;jettySize=auto;html=1;curved=0;" parent="1" edge="1">
          <mxGeometry relative="1" as="geometry">
            <mxPoint x="85" y="1010" as="sourcePoint" />
            <mxPoint x="190" y="1010" as="targetPoint" />
          </mxGeometry>
        </mxCell>
        <mxCell id="nb-kfdWa5h6-bXmlmSGa-56" value="Закрыть файл" style="text;html=1;align=center;verticalAlign=middle;resizable=0;points=[];autosize=1;strokeColor=none;fillColor=none;" parent="1" vertex="1">
          <mxGeometry x="84" y="987" width="100" height="30" as="geometry" />
        </mxCell>
      </root>
    </mxGraphModel>
  </diagram>
  <diagram name="Классы" id="Qg2Iq9CObwb7BaJ5Gz86">
    <mxGraphModel dx="1517" dy="703" grid="1" gridSize="10" guides="1" tooltips="1" connect="1" arrows="1" fold="1" page="1" pageScale="1" pageWidth="827" pageHeight="1169" math="0" shadow="0">
      <root>
        <mxCell id="0" />
        <mxCell id="1" parent="0" />
        <mxCell id="zaacrL9Uf0j66pZ1ocVG-1" value="Line" style="swimlane;fontStyle=0;childLayout=stackLayout;horizontal=1;startSize=26;fillColor=none;horizontalStack=0;resizeParent=1;resizeParentMax=0;resizeLast=0;collapsible=1;marginBottom=0;whiteSpace=wrap;html=1;" parent="1" vertex="1">
          <mxGeometry x="414" y="51" width="140" height="208" as="geometry" />
        </mxCell>
        <mxCell id="zaacrL9Uf0j66pZ1ocVG-2" value="+&amp;nbsp;area : Area" style="text;strokeColor=none;fillColor=none;align=left;verticalAlign=top;spacingLeft=4;spacingRight=4;overflow=hidden;rotatable=0;points=[[0,0.5],[1,0.5]];portConstraint=eastwest;whiteSpace=wrap;html=1;" parent="zaacrL9Uf0j66pZ1ocVG-1" vertex="1">
          <mxGeometry y="26" width="140" height="26" as="geometry" />
        </mxCell>
        <mxCell id="zaacrL9Uf0j66pZ1ocVG-3" value="+ p_line: int" style="text;strokeColor=none;fillColor=none;align=left;verticalAlign=top;spacingLeft=4;spacingRight=4;overflow=hidden;rotatable=0;points=[[0,0.5],[1,0.5]];portConstraint=eastwest;whiteSpace=wrap;html=1;" parent="zaacrL9Uf0j66pZ1ocVG-1" vertex="1">
          <mxGeometry y="52" width="140" height="26" as="geometry" />
        </mxCell>
        <mxCell id="zaacrL9Uf0j66pZ1ocVG-4" value="+ color: string" style="text;strokeColor=none;fillColor=none;align=left;verticalAlign=top;spacingLeft=4;spacingRight=4;overflow=hidden;rotatable=0;points=[[0,0.5],[1,0.5]];portConstraint=eastwest;whiteSpace=wrap;html=1;" parent="zaacrL9Uf0j66pZ1ocVG-1" vertex="1">
          <mxGeometry y="78" width="140" height="26" as="geometry" />
        </mxCell>
        <mxCell id="zaacrL9Uf0j66pZ1ocVG-5" value="+ y1: int" style="text;strokeColor=none;fillColor=none;align=left;verticalAlign=top;spacingLeft=4;spacingRight=4;overflow=hidden;rotatable=0;points=[[0,0.5],[1,0.5]];portConstraint=eastwest;whiteSpace=wrap;html=1;" parent="zaacrL9Uf0j66pZ1ocVG-1" vertex="1">
          <mxGeometry y="104" width="140" height="26" as="geometry" />
        </mxCell>
        <mxCell id="zaacrL9Uf0j66pZ1ocVG-6" value="+ y2: int" style="text;strokeColor=none;fillColor=none;align=left;verticalAlign=top;spacingLeft=4;spacingRight=4;overflow=hidden;rotatable=0;points=[[0,0.5],[1,0.5]];portConstraint=eastwest;whiteSpace=wrap;html=1;" parent="zaacrL9Uf0j66pZ1ocVG-1" vertex="1">
          <mxGeometry y="130" width="140" height="26" as="geometry" />
        </mxCell>
        <mxCell id="zaacrL9Uf0j66pZ1ocVG-7" value="+ x1: int" style="text;strokeColor=none;fillColor=none;align=left;verticalAlign=top;spacingLeft=4;spacingRight=4;overflow=hidden;rotatable=0;points=[[0,0.5],[1,0.5]];portConstraint=eastwest;whiteSpace=wrap;html=1;" parent="zaacrL9Uf0j66pZ1ocVG-1" vertex="1">
          <mxGeometry y="156" width="140" height="26" as="geometry" />
        </mxCell>
        <mxCell id="zaacrL9Uf0j66pZ1ocVG-8" value="+ x2: int" style="text;strokeColor=none;fillColor=none;align=left;verticalAlign=top;spacingLeft=4;spacingRight=4;overflow=hidden;rotatable=0;points=[[0,0.5],[1,0.5]];portConstraint=eastwest;whiteSpace=wrap;html=1;" parent="zaacrL9Uf0j66pZ1ocVG-1" vertex="1">
          <mxGeometry y="182" width="140" height="26" as="geometry" />
        </mxCell>
        <mxCell id="zaacrL9Uf0j66pZ1ocVG-9" value="&amp;lt;&amp;lt;interface&amp;gt;&amp;gt;&lt;br style=&quot;border-color: var(--border-color);&quot;&gt;Отрисовка" style="swimlane;fontStyle=1;align=center;verticalAlign=top;childLayout=stackLayout;horizontal=1;startSize=40;horizontalStack=0;resizeParent=1;resizeParentMax=0;resizeLast=0;collapsible=1;marginBottom=0;whiteSpace=wrap;html=1;" parent="1" vertex="1">
          <mxGeometry x="780" y="300" width="160" height="334" as="geometry" />
        </mxCell>
        <mxCell id="zaacrL9Uf0j66pZ1ocVG-10" value="+ draw_area: Map" style="text;strokeColor=none;fillColor=none;align=left;verticalAlign=top;spacingLeft=4;spacingRight=4;overflow=hidden;rotatable=0;points=[[0,0.5],[1,0.5]];portConstraint=eastwest;whiteSpace=wrap;html=1;" parent="zaacrL9Uf0j66pZ1ocVG-9" vertex="1">
          <mxGeometry y="40" width="160" height="26" as="geometry" />
        </mxCell>
        <mxCell id="zaacrL9Uf0j66pZ1ocVG-11" value="+ file_name:string" style="text;strokeColor=none;fillColor=none;align=left;verticalAlign=top;spacingLeft=4;spacingRight=4;overflow=hidden;rotatable=0;points=[[0,0.5],[1,0.5]];portConstraint=eastwest;whiteSpace=wrap;html=1;" parent="zaacrL9Uf0j66pZ1ocVG-9" vertex="1">
          <mxGeometry y="66" width="160" height="26" as="geometry" />
        </mxCell>
        <mxCell id="zaacrL9Uf0j66pZ1ocVG-12" value="" style="line;strokeWidth=1;fillColor=none;align=left;verticalAlign=middle;spacingTop=-1;spacingLeft=3;spacingRight=3;rotatable=0;labelPosition=right;points=[];portConstraint=eastwest;strokeColor=inherit;" parent="zaacrL9Uf0j66pZ1ocVG-9" vertex="1">
          <mxGeometry y="92" width="160" height="8" as="geometry" />
        </mxCell>
        <mxCell id="zaacrL9Uf0j66pZ1ocVG-13" value="+ choose_figure()" style="text;strokeColor=none;fillColor=none;align=left;verticalAlign=top;spacingLeft=4;spacingRight=4;overflow=hidden;rotatable=0;points=[[0,0.5],[1,0.5]];portConstraint=eastwest;whiteSpace=wrap;html=1;" parent="zaacrL9Uf0j66pZ1ocVG-9" vertex="1">
          <mxGeometry y="100" width="160" height="26" as="geometry" />
        </mxCell>
        <mxCell id="zaacrL9Uf0j66pZ1ocVG-14" value="+ choose_picture()" style="text;strokeColor=none;fillColor=none;align=left;verticalAlign=top;spacingLeft=4;spacingRight=4;overflow=hidden;rotatable=0;points=[[0,0.5],[1,0.5]];portConstraint=eastwest;whiteSpace=wrap;html=1;" parent="zaacrL9Uf0j66pZ1ocVG-9" vertex="1">
          <mxGeometry y="126" width="160" height="26" as="geometry" />
        </mxCell>
        <mxCell id="zaacrL9Uf0j66pZ1ocVG-15" value="+ draw_figure()" style="text;strokeColor=none;fillColor=none;align=left;verticalAlign=top;spacingLeft=4;spacingRight=4;overflow=hidden;rotatable=0;points=[[0,0.5],[1,0.5]];portConstraint=eastwest;whiteSpace=wrap;html=1;" parent="zaacrL9Uf0j66pZ1ocVG-9" vertex="1">
          <mxGeometry y="152" width="160" height="26" as="geometry" />
        </mxCell>
        <mxCell id="zaacrL9Uf0j66pZ1ocVG-16" value="+ draw_picture()" style="text;strokeColor=none;fillColor=none;align=left;verticalAlign=top;spacingLeft=4;spacingRight=4;overflow=hidden;rotatable=0;points=[[0,0.5],[1,0.5]];portConstraint=eastwest;whiteSpace=wrap;html=1;" parent="zaacrL9Uf0j66pZ1ocVG-9" vertex="1">
          <mxGeometry y="178" width="160" height="26" as="geometry" />
        </mxCell>
        <mxCell id="zaacrL9Uf0j66pZ1ocVG-17" value="+ set_place()" style="text;strokeColor=none;fillColor=none;align=left;verticalAlign=top;spacingLeft=4;spacingRight=4;overflow=hidden;rotatable=0;points=[[0,0.5],[1,0.5]];portConstraint=eastwest;whiteSpace=wrap;html=1;" parent="zaacrL9Uf0j66pZ1ocVG-9" vertex="1">
          <mxGeometry y="204" width="160" height="26" as="geometry" />
        </mxCell>
        <mxCell id="zaacrL9Uf0j66pZ1ocVG-18" value="+ set_color()" style="text;strokeColor=none;fillColor=none;align=left;verticalAlign=top;spacingLeft=4;spacingRight=4;overflow=hidden;rotatable=0;points=[[0,0.5],[1,0.5]];portConstraint=eastwest;whiteSpace=wrap;html=1;" parent="zaacrL9Uf0j66pZ1ocVG-9" vertex="1">
          <mxGeometry y="230" width="160" height="26" as="geometry" />
        </mxCell>
        <mxCell id="zaacrL9Uf0j66pZ1ocVG-19" value="+ replaced()" style="text;strokeColor=none;fillColor=none;align=left;verticalAlign=top;spacingLeft=4;spacingRight=4;overflow=hidden;rotatable=0;points=[[0,0.5],[1,0.5]];portConstraint=eastwest;whiteSpace=wrap;html=1;" parent="zaacrL9Uf0j66pZ1ocVG-9" vertex="1">
          <mxGeometry y="256" width="160" height="26" as="geometry" />
        </mxCell>
        <mxCell id="zaacrL9Uf0j66pZ1ocVG-20" value="+ change_color()" style="text;strokeColor=none;fillColor=none;align=left;verticalAlign=top;spacingLeft=4;spacingRight=4;overflow=hidden;rotatable=0;points=[[0,0.5],[1,0.5]];portConstraint=eastwest;whiteSpace=wrap;html=1;" parent="zaacrL9Uf0j66pZ1ocVG-9" vertex="1">
          <mxGeometry y="282" width="160" height="26" as="geometry" />
        </mxCell>
        <mxCell id="zaacrL9Uf0j66pZ1ocVG-21" value="+ change_p_line()" style="text;strokeColor=none;fillColor=none;align=left;verticalAlign=top;spacingLeft=4;spacingRight=4;overflow=hidden;rotatable=0;points=[[0,0.5],[1,0.5]];portConstraint=eastwest;whiteSpace=wrap;html=1;" parent="zaacrL9Uf0j66pZ1ocVG-9" vertex="1">
          <mxGeometry y="308" width="160" height="26" as="geometry" />
        </mxCell>
        <mxCell id="zaacrL9Uf0j66pZ1ocVG-22" value="&amp;lt;&amp;lt;interface&amp;gt;&amp;gt;&lt;br style=&quot;border-color: var(--border-color);&quot;&gt;Интерфейс граф.редактора" style="swimlane;fontStyle=1;align=center;verticalAlign=top;childLayout=stackLayout;horizontal=1;startSize=50;horizontalStack=0;resizeParent=1;resizeParentMax=0;resizeLast=0;collapsible=1;marginBottom=0;whiteSpace=wrap;html=1;" parent="1" vertex="1">
          <mxGeometry x="1040" y="280" width="160" height="214" as="geometry" />
        </mxCell>
        <mxCell id="zaacrL9Uf0j66pZ1ocVG-23" value="+ create_file()" style="text;strokeColor=none;fillColor=none;align=left;verticalAlign=top;spacingLeft=4;spacingRight=4;overflow=hidden;rotatable=0;points=[[0,0.5],[1,0.5]];portConstraint=eastwest;whiteSpace=wrap;html=1;" parent="zaacrL9Uf0j66pZ1ocVG-22" vertex="1">
          <mxGeometry y="50" width="160" height="26" as="geometry" />
        </mxCell>
        <mxCell id="zaacrL9Uf0j66pZ1ocVG-24" value="" style="line;strokeWidth=1;fillColor=none;align=left;verticalAlign=middle;spacingTop=-1;spacingLeft=3;spacingRight=3;rotatable=0;labelPosition=right;points=[];portConstraint=eastwest;strokeColor=inherit;" parent="zaacrL9Uf0j66pZ1ocVG-22" vertex="1">
          <mxGeometry y="76" width="160" height="8" as="geometry" />
        </mxCell>
        <mxCell id="zaacrL9Uf0j66pZ1ocVG-25" value="+ create_file()" style="text;strokeColor=none;fillColor=none;align=left;verticalAlign=top;spacingLeft=4;spacingRight=4;overflow=hidden;rotatable=0;points=[[0,0.5],[1,0.5]];portConstraint=eastwest;whiteSpace=wrap;html=1;" parent="zaacrL9Uf0j66pZ1ocVG-22" vertex="1">
          <mxGeometry y="84" width="160" height="26" as="geometry" />
        </mxCell>
        <mxCell id="zaacrL9Uf0j66pZ1ocVG-26" value="+ open_file()" style="text;strokeColor=none;fillColor=none;align=left;verticalAlign=top;spacingLeft=4;spacingRight=4;overflow=hidden;rotatable=0;points=[[0,0.5],[1,0.5]];portConstraint=eastwest;whiteSpace=wrap;html=1;" parent="zaacrL9Uf0j66pZ1ocVG-22" vertex="1">
          <mxGeometry y="110" width="160" height="26" as="geometry" />
        </mxCell>
        <mxCell id="zaacrL9Uf0j66pZ1ocVG-27" value="+ save_file()" style="text;strokeColor=none;fillColor=none;align=left;verticalAlign=top;spacingLeft=4;spacingRight=4;overflow=hidden;rotatable=0;points=[[0,0.5],[1,0.5]];portConstraint=eastwest;whiteSpace=wrap;html=1;" parent="zaacrL9Uf0j66pZ1ocVG-22" vertex="1">
          <mxGeometry y="136" width="160" height="26" as="geometry" />
        </mxCell>
        <mxCell id="zaacrL9Uf0j66pZ1ocVG-28" value="+ close_file()" style="text;strokeColor=none;fillColor=none;align=left;verticalAlign=top;spacingLeft=4;spacingRight=4;overflow=hidden;rotatable=0;points=[[0,0.5],[1,0.5]];portConstraint=eastwest;whiteSpace=wrap;html=1;" parent="zaacrL9Uf0j66pZ1ocVG-22" vertex="1">
          <mxGeometry y="162" width="160" height="26" as="geometry" />
        </mxCell>
        <mxCell id="zaacrL9Uf0j66pZ1ocVG-29" value="+ delete_file()" style="text;strokeColor=none;fillColor=none;align=left;verticalAlign=top;spacingLeft=4;spacingRight=4;overflow=hidden;rotatable=0;points=[[0,0.5],[1,0.5]];portConstraint=eastwest;whiteSpace=wrap;html=1;" parent="zaacrL9Uf0j66pZ1ocVG-22" vertex="1">
          <mxGeometry y="188" width="160" height="26" as="geometry" />
        </mxCell>
        <mxCell id="zaacrL9Uf0j66pZ1ocVG-30" style="edgeStyle=orthogonalEdgeStyle;rounded=0;orthogonalLoop=1;jettySize=auto;html=1;exitX=0;exitY=0.5;exitDx=0;exitDy=0;entryX=1;entryY=0.5;entryDx=0;entryDy=0;dashed=1;" parent="1" source="zaacrL9Uf0j66pZ1ocVG-26" target="zaacrL9Uf0j66pZ1ocVG-11" edge="1">
          <mxGeometry relative="1" as="geometry">
            <Array as="points">
              <mxPoint x="1040" y="380" />
              <mxPoint x="940" y="380" />
            </Array>
          </mxGeometry>
        </mxCell>
        <mxCell id="zaacrL9Uf0j66pZ1ocVG-31" value="Square" style="swimlane;fontStyle=0;childLayout=stackLayout;horizontal=1;startSize=26;fillColor=none;horizontalStack=0;resizeParent=1;resizeParentMax=0;resizeLast=0;collapsible=1;marginBottom=0;whiteSpace=wrap;html=1;" parent="1" vertex="1">
          <mxGeometry x="570" y="585" width="140" height="182" as="geometry" />
        </mxCell>
        <mxCell id="zaacrL9Uf0j66pZ1ocVG-32" value="+ x1: int" style="text;strokeColor=none;fillColor=none;align=left;verticalAlign=top;spacingLeft=4;spacingRight=4;overflow=hidden;rotatable=0;points=[[0,0.5],[1,0.5]];portConstraint=eastwest;whiteSpace=wrap;html=1;" parent="zaacrL9Uf0j66pZ1ocVG-31" vertex="1">
          <mxGeometry y="26" width="140" height="26" as="geometry" />
        </mxCell>
        <mxCell id="zaacrL9Uf0j66pZ1ocVG-33" value="+ y1: int" style="text;strokeColor=none;fillColor=none;align=left;verticalAlign=top;spacingLeft=4;spacingRight=4;overflow=hidden;rotatable=0;points=[[0,0.5],[1,0.5]];portConstraint=eastwest;whiteSpace=wrap;html=1;" parent="zaacrL9Uf0j66pZ1ocVG-31" vertex="1">
          <mxGeometry y="52" width="140" height="26" as="geometry" />
        </mxCell>
        <mxCell id="zaacrL9Uf0j66pZ1ocVG-34" value="+ color: string" style="text;strokeColor=none;fillColor=none;align=left;verticalAlign=top;spacingLeft=4;spacingRight=4;overflow=hidden;rotatable=0;points=[[0,0.5],[1,0.5]];portConstraint=eastwest;whiteSpace=wrap;html=1;" parent="zaacrL9Uf0j66pZ1ocVG-31" vertex="1">
          <mxGeometry y="78" width="140" height="26" as="geometry" />
        </mxCell>
        <mxCell id="zaacrL9Uf0j66pZ1ocVG-35" value="+ p_line: int" style="text;strokeColor=none;fillColor=none;align=left;verticalAlign=top;spacingLeft=4;spacingRight=4;overflow=hidden;rotatable=0;points=[[0,0.5],[1,0.5]];portConstraint=eastwest;whiteSpace=wrap;html=1;" parent="zaacrL9Uf0j66pZ1ocVG-31" vertex="1">
          <mxGeometry y="104" width="140" height="26" as="geometry" />
        </mxCell>
        <mxCell id="zaacrL9Uf0j66pZ1ocVG-36" value="+&amp;nbsp;area : Area" style="text;strokeColor=none;fillColor=none;align=left;verticalAlign=top;spacingLeft=4;spacingRight=4;overflow=hidden;rotatable=0;points=[[0,0.5],[1,0.5]];portConstraint=eastwest;whiteSpace=wrap;html=1;" parent="zaacrL9Uf0j66pZ1ocVG-31" vertex="1">
          <mxGeometry y="130" width="140" height="26" as="geometry" />
        </mxCell>
        <mxCell id="zaacrL9Uf0j66pZ1ocVG-37" value="+ a: int" style="text;strokeColor=none;fillColor=none;align=left;verticalAlign=top;spacingLeft=4;spacingRight=4;overflow=hidden;rotatable=0;points=[[0,0.5],[1,0.5]];portConstraint=eastwest;whiteSpace=wrap;html=1;" parent="zaacrL9Uf0j66pZ1ocVG-31" vertex="1">
          <mxGeometry y="156" width="140" height="26" as="geometry" />
        </mxCell>
        <mxCell id="zaacrL9Uf0j66pZ1ocVG-38" value="circle" style="swimlane;fontStyle=0;childLayout=stackLayout;horizontal=1;startSize=26;fillColor=none;horizontalStack=0;resizeParent=1;resizeParentMax=0;resizeLast=0;collapsible=1;marginBottom=0;whiteSpace=wrap;html=1;" parent="1" vertex="1">
          <mxGeometry x="440" y="270" width="140" height="182" as="geometry" />
        </mxCell>
        <mxCell id="zaacrL9Uf0j66pZ1ocVG-39" value="+ r: int" style="text;strokeColor=none;fillColor=none;align=left;verticalAlign=top;spacingLeft=4;spacingRight=4;overflow=hidden;rotatable=0;points=[[0,0.5],[1,0.5]];portConstraint=eastwest;whiteSpace=wrap;html=1;" parent="zaacrL9Uf0j66pZ1ocVG-38" vertex="1">
          <mxGeometry y="26" width="140" height="26" as="geometry" />
        </mxCell>
        <mxCell id="zaacrL9Uf0j66pZ1ocVG-40" value="+&amp;nbsp;area : Area" style="text;strokeColor=none;fillColor=none;align=left;verticalAlign=top;spacingLeft=4;spacingRight=4;overflow=hidden;rotatable=0;points=[[0,0.5],[1,0.5]];portConstraint=eastwest;whiteSpace=wrap;html=1;" parent="zaacrL9Uf0j66pZ1ocVG-38" vertex="1">
          <mxGeometry y="52" width="140" height="26" as="geometry" />
        </mxCell>
        <mxCell id="zaacrL9Uf0j66pZ1ocVG-41" value="+ p_line: int" style="text;strokeColor=none;fillColor=none;align=left;verticalAlign=top;spacingLeft=4;spacingRight=4;overflow=hidden;rotatable=0;points=[[0,0.5],[1,0.5]];portConstraint=eastwest;whiteSpace=wrap;html=1;" parent="zaacrL9Uf0j66pZ1ocVG-38" vertex="1">
          <mxGeometry y="78" width="140" height="26" as="geometry" />
        </mxCell>
        <mxCell id="zaacrL9Uf0j66pZ1ocVG-42" value="+ color: string" style="text;strokeColor=none;fillColor=none;align=left;verticalAlign=top;spacingLeft=4;spacingRight=4;overflow=hidden;rotatable=0;points=[[0,0.5],[1,0.5]];portConstraint=eastwest;whiteSpace=wrap;html=1;" parent="zaacrL9Uf0j66pZ1ocVG-38" vertex="1">
          <mxGeometry y="104" width="140" height="26" as="geometry" />
        </mxCell>
        <mxCell id="zaacrL9Uf0j66pZ1ocVG-43" value="+ y1: int" style="text;strokeColor=none;fillColor=none;align=left;verticalAlign=top;spacingLeft=4;spacingRight=4;overflow=hidden;rotatable=0;points=[[0,0.5],[1,0.5]];portConstraint=eastwest;whiteSpace=wrap;html=1;" parent="zaacrL9Uf0j66pZ1ocVG-38" vertex="1">
          <mxGeometry y="130" width="140" height="26" as="geometry" />
        </mxCell>
        <mxCell id="zaacrL9Uf0j66pZ1ocVG-44" value="+ x1: int" style="text;strokeColor=none;fillColor=none;align=left;verticalAlign=top;spacingLeft=4;spacingRight=4;overflow=hidden;rotatable=0;points=[[0,0.5],[1,0.5]];portConstraint=eastwest;whiteSpace=wrap;html=1;" parent="zaacrL9Uf0j66pZ1ocVG-38" vertex="1">
          <mxGeometry y="156" width="140" height="26" as="geometry" />
        </mxCell>
        <mxCell id="zaacrL9Uf0j66pZ1ocVG-45" value="Point" style="swimlane;fontStyle=0;childLayout=stackLayout;horizontal=1;startSize=26;fillColor=none;horizontalStack=0;resizeParent=1;resizeParentMax=0;resizeLast=0;collapsible=1;marginBottom=0;whiteSpace=wrap;html=1;" parent="1" vertex="1">
          <mxGeometry x="580" y="51" width="140" height="156" as="geometry" />
        </mxCell>
        <mxCell id="zaacrL9Uf0j66pZ1ocVG-46" value="+&amp;nbsp;area : Area" style="text;strokeColor=none;fillColor=none;align=left;verticalAlign=top;spacingLeft=4;spacingRight=4;overflow=hidden;rotatable=0;points=[[0,0.5],[1,0.5]];portConstraint=eastwest;whiteSpace=wrap;html=1;" parent="zaacrL9Uf0j66pZ1ocVG-45" vertex="1">
          <mxGeometry y="26" width="140" height="26" as="geometry" />
        </mxCell>
        <mxCell id="zaacrL9Uf0j66pZ1ocVG-47" value="+ x: int" style="text;strokeColor=none;fillColor=none;align=left;verticalAlign=top;spacingLeft=4;spacingRight=4;overflow=hidden;rotatable=0;points=[[0,0.5],[1,0.5]];portConstraint=eastwest;whiteSpace=wrap;html=1;" parent="zaacrL9Uf0j66pZ1ocVG-45" vertex="1">
          <mxGeometry y="52" width="140" height="26" as="geometry" />
        </mxCell>
        <mxCell id="zaacrL9Uf0j66pZ1ocVG-48" value="+ y: int" style="text;strokeColor=none;fillColor=none;align=left;verticalAlign=top;spacingLeft=4;spacingRight=4;overflow=hidden;rotatable=0;points=[[0,0.5],[1,0.5]];portConstraint=eastwest;whiteSpace=wrap;html=1;" parent="zaacrL9Uf0j66pZ1ocVG-45" vertex="1">
          <mxGeometry y="78" width="140" height="26" as="geometry" />
        </mxCell>
        <mxCell id="zaacrL9Uf0j66pZ1ocVG-49" value="+ color: string" style="text;strokeColor=none;fillColor=none;align=left;verticalAlign=top;spacingLeft=4;spacingRight=4;overflow=hidden;rotatable=0;points=[[0,0.5],[1,0.5]];portConstraint=eastwest;whiteSpace=wrap;html=1;" parent="zaacrL9Uf0j66pZ1ocVG-45" vertex="1">
          <mxGeometry y="104" width="140" height="26" as="geometry" />
        </mxCell>
        <mxCell id="zaacrL9Uf0j66pZ1ocVG-50" value="+ p_line: int" style="text;strokeColor=none;fillColor=none;align=left;verticalAlign=top;spacingLeft=4;spacingRight=4;overflow=hidden;rotatable=0;points=[[0,0.5],[1,0.5]];portConstraint=eastwest;whiteSpace=wrap;html=1;" parent="zaacrL9Uf0j66pZ1ocVG-45" vertex="1">
          <mxGeometry y="130" width="140" height="26" as="geometry" />
        </mxCell>
        <mxCell id="zaacrL9Uf0j66pZ1ocVG-51" value="rectangle" style="swimlane;fontStyle=0;childLayout=stackLayout;horizontal=1;startSize=26;fillColor=none;horizontalStack=0;resizeParent=1;resizeParentMax=0;resizeLast=0;collapsible=1;marginBottom=0;whiteSpace=wrap;html=1;" parent="1" vertex="1">
          <mxGeometry x="40" y="472" width="140" height="208" as="geometry" />
        </mxCell>
        <mxCell id="zaacrL9Uf0j66pZ1ocVG-52" value="+ b: int" style="text;strokeColor=none;fillColor=none;align=left;verticalAlign=top;spacingLeft=4;spacingRight=4;overflow=hidden;rotatable=0;points=[[0,0.5],[1,0.5]];portConstraint=eastwest;whiteSpace=wrap;html=1;" parent="zaacrL9Uf0j66pZ1ocVG-51" vertex="1">
          <mxGeometry y="26" width="140" height="26" as="geometry" />
        </mxCell>
        <mxCell id="zaacrL9Uf0j66pZ1ocVG-53" value="+ x1: int" style="text;strokeColor=none;fillColor=none;align=left;verticalAlign=top;spacingLeft=4;spacingRight=4;overflow=hidden;rotatable=0;points=[[0,0.5],[1,0.5]];portConstraint=eastwest;whiteSpace=wrap;html=1;" parent="zaacrL9Uf0j66pZ1ocVG-51" vertex="1">
          <mxGeometry y="52" width="140" height="26" as="geometry" />
        </mxCell>
        <mxCell id="zaacrL9Uf0j66pZ1ocVG-54" value="+ a: int" style="text;strokeColor=none;fillColor=none;align=left;verticalAlign=top;spacingLeft=4;spacingRight=4;overflow=hidden;rotatable=0;points=[[0,0.5],[1,0.5]];portConstraint=eastwest;whiteSpace=wrap;html=1;" parent="zaacrL9Uf0j66pZ1ocVG-51" vertex="1">
          <mxGeometry y="78" width="140" height="26" as="geometry" />
        </mxCell>
        <mxCell id="zaacrL9Uf0j66pZ1ocVG-55" value="+&amp;nbsp;area : Area" style="text;strokeColor=none;fillColor=none;align=left;verticalAlign=top;spacingLeft=4;spacingRight=4;overflow=hidden;rotatable=0;points=[[0,0.5],[1,0.5]];portConstraint=eastwest;whiteSpace=wrap;html=1;" parent="zaacrL9Uf0j66pZ1ocVG-51" vertex="1">
          <mxGeometry y="104" width="140" height="26" as="geometry" />
        </mxCell>
        <mxCell id="zaacrL9Uf0j66pZ1ocVG-56" value="+ p_line: int" style="text;strokeColor=none;fillColor=none;align=left;verticalAlign=top;spacingLeft=4;spacingRight=4;overflow=hidden;rotatable=0;points=[[0,0.5],[1,0.5]];portConstraint=eastwest;whiteSpace=wrap;html=1;" parent="zaacrL9Uf0j66pZ1ocVG-51" vertex="1">
          <mxGeometry y="130" width="140" height="26" as="geometry" />
        </mxCell>
        <mxCell id="zaacrL9Uf0j66pZ1ocVG-57" value="+ color: string" style="text;strokeColor=none;fillColor=none;align=left;verticalAlign=top;spacingLeft=4;spacingRight=4;overflow=hidden;rotatable=0;points=[[0,0.5],[1,0.5]];portConstraint=eastwest;whiteSpace=wrap;html=1;" parent="zaacrL9Uf0j66pZ1ocVG-51" vertex="1">
          <mxGeometry y="156" width="140" height="26" as="geometry" />
        </mxCell>
        <mxCell id="zaacrL9Uf0j66pZ1ocVG-58" value="+ y1: int" style="text;strokeColor=none;fillColor=none;align=left;verticalAlign=top;spacingLeft=4;spacingRight=4;overflow=hidden;rotatable=0;points=[[0,0.5],[1,0.5]];portConstraint=eastwest;whiteSpace=wrap;html=1;" parent="zaacrL9Uf0j66pZ1ocVG-51" vertex="1">
          <mxGeometry y="182" width="140" height="26" as="geometry" />
        </mxCell>
        <mxCell id="zaacrL9Uf0j66pZ1ocVG-59" value="oval" style="swimlane;fontStyle=0;childLayout=stackLayout;horizontal=1;startSize=26;fillColor=none;horizontalStack=0;resizeParent=1;resizeParentMax=0;resizeLast=0;collapsible=1;marginBottom=0;whiteSpace=wrap;html=1;" parent="1" vertex="1">
          <mxGeometry x="160" y="698" width="140" height="208" as="geometry" />
        </mxCell>
        <mxCell id="zaacrL9Uf0j66pZ1ocVG-60" value="+ r1: int" style="text;strokeColor=none;fillColor=none;align=left;verticalAlign=top;spacingLeft=4;spacingRight=4;overflow=hidden;rotatable=0;points=[[0,0.5],[1,0.5]];portConstraint=eastwest;whiteSpace=wrap;html=1;" parent="zaacrL9Uf0j66pZ1ocVG-59" vertex="1">
          <mxGeometry y="26" width="140" height="26" as="geometry" />
        </mxCell>
        <mxCell id="zaacrL9Uf0j66pZ1ocVG-61" value="+ r2: int" style="text;strokeColor=none;fillColor=none;align=left;verticalAlign=top;spacingLeft=4;spacingRight=4;overflow=hidden;rotatable=0;points=[[0,0.5],[1,0.5]];portConstraint=eastwest;whiteSpace=wrap;html=1;" parent="zaacrL9Uf0j66pZ1ocVG-59" vertex="1">
          <mxGeometry y="52" width="140" height="26" as="geometry" />
        </mxCell>
        <mxCell id="zaacrL9Uf0j66pZ1ocVG-62" value="+ x1: int" style="text;strokeColor=none;fillColor=none;align=left;verticalAlign=top;spacingLeft=4;spacingRight=4;overflow=hidden;rotatable=0;points=[[0,0.5],[1,0.5]];portConstraint=eastwest;whiteSpace=wrap;html=1;" parent="zaacrL9Uf0j66pZ1ocVG-59" vertex="1">
          <mxGeometry y="78" width="140" height="26" as="geometry" />
        </mxCell>
        <mxCell id="zaacrL9Uf0j66pZ1ocVG-63" value="+ y1: int" style="text;strokeColor=none;fillColor=none;align=left;verticalAlign=top;spacingLeft=4;spacingRight=4;overflow=hidden;rotatable=0;points=[[0,0.5],[1,0.5]];portConstraint=eastwest;whiteSpace=wrap;html=1;" parent="zaacrL9Uf0j66pZ1ocVG-59" vertex="1">
          <mxGeometry y="104" width="140" height="26" as="geometry" />
        </mxCell>
        <mxCell id="zaacrL9Uf0j66pZ1ocVG-64" value="+ color: string" style="text;strokeColor=none;fillColor=none;align=left;verticalAlign=top;spacingLeft=4;spacingRight=4;overflow=hidden;rotatable=0;points=[[0,0.5],[1,0.5]];portConstraint=eastwest;whiteSpace=wrap;html=1;" parent="zaacrL9Uf0j66pZ1ocVG-59" vertex="1">
          <mxGeometry y="130" width="140" height="26" as="geometry" />
        </mxCell>
        <mxCell id="zaacrL9Uf0j66pZ1ocVG-65" value="+ p_line: int" style="text;strokeColor=none;fillColor=none;align=left;verticalAlign=top;spacingLeft=4;spacingRight=4;overflow=hidden;rotatable=0;points=[[0,0.5],[1,0.5]];portConstraint=eastwest;whiteSpace=wrap;html=1;" parent="zaacrL9Uf0j66pZ1ocVG-59" vertex="1">
          <mxGeometry y="156" width="140" height="26" as="geometry" />
        </mxCell>
        <mxCell id="zaacrL9Uf0j66pZ1ocVG-66" value="+&amp;nbsp;area : Area" style="text;strokeColor=none;fillColor=none;align=left;verticalAlign=top;spacingLeft=4;spacingRight=4;overflow=hidden;rotatable=0;points=[[0,0.5],[1,0.5]];portConstraint=eastwest;whiteSpace=wrap;html=1;" parent="zaacrL9Uf0j66pZ1ocVG-59" vertex="1">
          <mxGeometry y="182" width="140" height="26" as="geometry" />
        </mxCell>
        <mxCell id="zaacrL9Uf0j66pZ1ocVG-67" value="triangle" style="swimlane;fontStyle=0;childLayout=stackLayout;horizontal=1;startSize=26;fillColor=none;horizontalStack=0;resizeParent=1;resizeParentMax=0;resizeLast=0;collapsible=1;marginBottom=0;whiteSpace=wrap;html=1;" parent="1" vertex="1">
          <mxGeometry x="70" y="218" width="140" height="234" as="geometry" />
        </mxCell>
        <mxCell id="zaacrL9Uf0j66pZ1ocVG-68" value="+ corner: int" style="text;strokeColor=none;fillColor=none;align=left;verticalAlign=top;spacingLeft=4;spacingRight=4;overflow=hidden;rotatable=0;points=[[0,0.5],[1,0.5]];portConstraint=eastwest;whiteSpace=wrap;html=1;" parent="zaacrL9Uf0j66pZ1ocVG-67" vertex="1">
          <mxGeometry y="26" width="140" height="26" as="geometry" />
        </mxCell>
        <mxCell id="zaacrL9Uf0j66pZ1ocVG-69" value="+ x2: int" style="text;strokeColor=none;fillColor=none;align=left;verticalAlign=top;spacingLeft=4;spacingRight=4;overflow=hidden;rotatable=0;points=[[0,0.5],[1,0.5]];portConstraint=eastwest;whiteSpace=wrap;html=1;" parent="zaacrL9Uf0j66pZ1ocVG-67" vertex="1">
          <mxGeometry y="52" width="140" height="26" as="geometry" />
        </mxCell>
        <mxCell id="zaacrL9Uf0j66pZ1ocVG-70" value="+ x1: int" style="text;strokeColor=none;fillColor=none;align=left;verticalAlign=top;spacingLeft=4;spacingRight=4;overflow=hidden;rotatable=0;points=[[0,0.5],[1,0.5]];portConstraint=eastwest;whiteSpace=wrap;html=1;" parent="zaacrL9Uf0j66pZ1ocVG-67" vertex="1">
          <mxGeometry y="78" width="140" height="26" as="geometry" />
        </mxCell>
        <mxCell id="zaacrL9Uf0j66pZ1ocVG-71" value="+ y2: int" style="text;strokeColor=none;fillColor=none;align=left;verticalAlign=top;spacingLeft=4;spacingRight=4;overflow=hidden;rotatable=0;points=[[0,0.5],[1,0.5]];portConstraint=eastwest;whiteSpace=wrap;html=1;" parent="zaacrL9Uf0j66pZ1ocVG-67" vertex="1">
          <mxGeometry y="104" width="140" height="26" as="geometry" />
        </mxCell>
        <mxCell id="zaacrL9Uf0j66pZ1ocVG-72" value="+ y1: int" style="text;strokeColor=none;fillColor=none;align=left;verticalAlign=top;spacingLeft=4;spacingRight=4;overflow=hidden;rotatable=0;points=[[0,0.5],[1,0.5]];portConstraint=eastwest;whiteSpace=wrap;html=1;" parent="zaacrL9Uf0j66pZ1ocVG-67" vertex="1">
          <mxGeometry y="130" width="140" height="26" as="geometry" />
        </mxCell>
        <mxCell id="zaacrL9Uf0j66pZ1ocVG-73" value="+ color: string" style="text;strokeColor=none;fillColor=none;align=left;verticalAlign=top;spacingLeft=4;spacingRight=4;overflow=hidden;rotatable=0;points=[[0,0.5],[1,0.5]];portConstraint=eastwest;whiteSpace=wrap;html=1;" parent="zaacrL9Uf0j66pZ1ocVG-67" vertex="1">
          <mxGeometry y="156" width="140" height="26" as="geometry" />
        </mxCell>
        <mxCell id="zaacrL9Uf0j66pZ1ocVG-74" value="+ p_line: int" style="text;strokeColor=none;fillColor=none;align=left;verticalAlign=top;spacingLeft=4;spacingRight=4;overflow=hidden;rotatable=0;points=[[0,0.5],[1,0.5]];portConstraint=eastwest;whiteSpace=wrap;html=1;" parent="zaacrL9Uf0j66pZ1ocVG-67" vertex="1">
          <mxGeometry y="182" width="140" height="26" as="geometry" />
        </mxCell>
        <mxCell id="zaacrL9Uf0j66pZ1ocVG-75" value="+&amp;nbsp;area : Area" style="text;strokeColor=none;fillColor=none;align=left;verticalAlign=top;spacingLeft=4;spacingRight=4;overflow=hidden;rotatable=0;points=[[0,0.5],[1,0.5]];portConstraint=eastwest;whiteSpace=wrap;html=1;" parent="zaacrL9Uf0j66pZ1ocVG-67" vertex="1">
          <mxGeometry y="208" width="140" height="26" as="geometry" />
        </mxCell>
        <mxCell id="zaacrL9Uf0j66pZ1ocVG-83" value="Draw Area" style="swimlane;fontStyle=1;align=center;verticalAlign=top;childLayout=stackLayout;horizontal=1;startSize=40;horizontalStack=0;resizeParent=1;resizeParentMax=0;resizeLast=0;collapsible=1;marginBottom=0;whiteSpace=wrap;html=1;" parent="1" vertex="1">
          <mxGeometry x="900" y="40" width="160" height="178" as="geometry" />
        </mxCell>
        <mxCell id="zaacrL9Uf0j66pZ1ocVG-84" value="+ Size:&amp;nbsp;(x : int, y : int)&lt;br/&gt;" style="text;strokeColor=none;fillColor=none;align=left;verticalAlign=top;spacingLeft=4;spacingRight=4;overflow=hidden;rotatable=0;points=[[0,0.5],[1,0.5]];portConstraint=eastwest;whiteSpace=wrap;html=1;" parent="zaacrL9Uf0j66pZ1ocVG-83" vertex="1">
          <mxGeometry y="40" width="160" height="26" as="geometry" />
        </mxCell>
        <mxCell id="zaacrL9Uf0j66pZ1ocVG-85" value="+Colore:string" style="text;strokeColor=none;fillColor=none;align=left;verticalAlign=top;spacingLeft=4;spacingRight=4;overflow=hidden;rotatable=0;points=[[0,0.5],[1,0.5]];portConstraint=eastwest;whiteSpace=wrap;html=1;" parent="zaacrL9Uf0j66pZ1ocVG-83" vertex="1">
          <mxGeometry y="66" width="160" height="26" as="geometry" />
        </mxCell>
        <mxCell id="zaacrL9Uf0j66pZ1ocVG-86" value="" style="line;strokeWidth=1;fillColor=none;align=left;verticalAlign=middle;spacingTop=-1;spacingLeft=3;spacingRight=3;rotatable=0;labelPosition=right;points=[];portConstraint=eastwest;strokeColor=inherit;" parent="zaacrL9Uf0j66pZ1ocVG-83" vertex="1">
          <mxGeometry y="92" width="160" height="8" as="geometry" />
        </mxCell>
        <mxCell id="zaacrL9Uf0j66pZ1ocVG-87" value="+ set_color()" style="text;strokeColor=none;fillColor=none;align=left;verticalAlign=top;spacingLeft=4;spacingRight=4;overflow=hidden;rotatable=0;points=[[0,0.5],[1,0.5]];portConstraint=eastwest;whiteSpace=wrap;html=1;" parent="zaacrL9Uf0j66pZ1ocVG-83" vertex="1">
          <mxGeometry y="100" width="160" height="26" as="geometry" />
        </mxCell>
        <mxCell id="zaacrL9Uf0j66pZ1ocVG-88" value="+ change_size()" style="text;strokeColor=none;fillColor=none;align=left;verticalAlign=top;spacingLeft=4;spacingRight=4;overflow=hidden;rotatable=0;points=[[0,0.5],[1,0.5]];portConstraint=eastwest;whiteSpace=wrap;html=1;" parent="zaacrL9Uf0j66pZ1ocVG-83" vertex="1">
          <mxGeometry y="126" width="160" height="26" as="geometry" />
        </mxCell>
        <mxCell id="zaacrL9Uf0j66pZ1ocVG-89" value="+ clean_everything()" style="text;strokeColor=none;fillColor=none;align=left;verticalAlign=top;spacingLeft=4;spacingRight=4;overflow=hidden;rotatable=0;points=[[0,0.5],[1,0.5]];portConstraint=eastwest;whiteSpace=wrap;html=1;" parent="zaacrL9Uf0j66pZ1ocVG-83" vertex="1">
          <mxGeometry y="152" width="160" height="26" as="geometry" />
        </mxCell>
        <mxCell id="zaacrL9Uf0j66pZ1ocVG-90" style="edgeStyle=orthogonalEdgeStyle;rounded=0;orthogonalLoop=1;jettySize=auto;html=1;exitX=0;exitY=0.5;exitDx=0;exitDy=0;entryX=0;entryY=0.5;entryDx=0;entryDy=0;" parent="1" source="zaacrL9Uf0j66pZ1ocVG-10" target="zaacrL9Uf0j66pZ1ocVG-85" edge="1">
          <mxGeometry relative="1" as="geometry">
            <Array as="points">
              <mxPoint x="770" y="353" />
              <mxPoint x="770" y="119" />
            </Array>
          </mxGeometry>
        </mxCell>
        <mxCell id="zaacrL9Uf0j66pZ1ocVG-91" value="File" style="swimlane;fontStyle=1;align=center;verticalAlign=top;childLayout=stackLayout;horizontal=1;startSize=40;horizontalStack=0;resizeParent=1;resizeParentMax=0;resizeLast=0;collapsible=1;marginBottom=0;whiteSpace=wrap;html=1;" parent="1" vertex="1">
          <mxGeometry x="1250" y="310" width="160" height="126" as="geometry" />
        </mxCell>
        <mxCell id="zaacrL9Uf0j66pZ1ocVG-92" value="+ file_name:string" style="text;strokeColor=none;fillColor=none;align=left;verticalAlign=top;spacingLeft=4;spacingRight=4;overflow=hidden;rotatable=0;points=[[0,0.5],[1,0.5]];portConstraint=eastwest;whiteSpace=wrap;html=1;" parent="zaacrL9Uf0j66pZ1ocVG-91" vertex="1">
          <mxGeometry y="40" width="160" height="26" as="geometry" />
        </mxCell>
        <mxCell id="zaacrL9Uf0j66pZ1ocVG-93" value="+ Gr_Libr: Library &amp;lt;Name&amp;gt;" style="text;strokeColor=none;fillColor=none;align=left;verticalAlign=top;spacingLeft=4;spacingRight=4;overflow=hidden;rotatable=0;points=[[0,0.5],[1,0.5]];portConstraint=eastwest;whiteSpace=wrap;html=1;" parent="zaacrL9Uf0j66pZ1ocVG-91" vertex="1">
          <mxGeometry y="66" width="160" height="26" as="geometry" />
        </mxCell>
        <mxCell id="zaacrL9Uf0j66pZ1ocVG-94" value="+ Type: name &amp;lt;type&amp;gt;" style="text;strokeColor=none;fillColor=none;align=left;verticalAlign=top;spacingLeft=4;spacingRight=4;overflow=hidden;rotatable=0;points=[[0,0.5],[1,0.5]];portConstraint=eastwest;whiteSpace=wrap;html=1;" parent="zaacrL9Uf0j66pZ1ocVG-91" vertex="1">
          <mxGeometry y="92" width="160" height="26" as="geometry" />
        </mxCell>
        <mxCell id="zaacrL9Uf0j66pZ1ocVG-95" value="" style="line;strokeWidth=1;fillColor=none;align=left;verticalAlign=middle;spacingTop=-1;spacingLeft=3;spacingRight=3;rotatable=0;labelPosition=right;points=[];portConstraint=eastwest;strokeColor=inherit;" parent="zaacrL9Uf0j66pZ1ocVG-91" vertex="1">
          <mxGeometry y="118" width="160" height="8" as="geometry" />
        </mxCell>
        <mxCell id="zaacrL9Uf0j66pZ1ocVG-96" style="edgeStyle=orthogonalEdgeStyle;rounded=0;orthogonalLoop=1;jettySize=auto;html=1;exitX=1;exitY=0.5;exitDx=0;exitDy=0;entryX=0;entryY=0.5;entryDx=0;entryDy=0;" parent="1" source="zaacrL9Uf0j66pZ1ocVG-25" target="zaacrL9Uf0j66pZ1ocVG-92" edge="1">
          <mxGeometry relative="1" as="geometry" />
        </mxCell>
        <mxCell id="zaacrL9Uf0j66pZ1ocVG-97" value="Paint" style="swimlane;fontStyle=0;childLayout=stackLayout;horizontal=1;startSize=26;fillColor=none;horizontalStack=0;resizeParent=1;resizeParentMax=0;resizeLast=0;collapsible=1;marginBottom=0;whiteSpace=wrap;html=1;" parent="1" vertex="1">
          <mxGeometry x="790" y="705" width="140" height="182" as="geometry" />
        </mxCell>
        <mxCell id="zaacrL9Uf0j66pZ1ocVG-98" value="+&amp;nbsp;area : Area" style="text;strokeColor=none;fillColor=none;align=left;verticalAlign=top;spacingLeft=4;spacingRight=4;overflow=hidden;rotatable=0;points=[[0,0.5],[1,0.5]];portConstraint=eastwest;whiteSpace=wrap;html=1;" parent="zaacrL9Uf0j66pZ1ocVG-97" vertex="1">
          <mxGeometry y="26" width="140" height="26" as="geometry" />
        </mxCell>
        <mxCell id="zaacrL9Uf0j66pZ1ocVG-99" value="+ x1: int" style="text;strokeColor=none;fillColor=none;align=left;verticalAlign=top;spacingLeft=4;spacingRight=4;overflow=hidden;rotatable=0;points=[[0,0.5],[1,0.5]];portConstraint=eastwest;whiteSpace=wrap;html=1;" parent="zaacrL9Uf0j66pZ1ocVG-97" vertex="1">
          <mxGeometry y="52" width="140" height="26" as="geometry" />
        </mxCell>
        <mxCell id="zaacrL9Uf0j66pZ1ocVG-100" value="+ y1: int" style="text;strokeColor=none;fillColor=none;align=left;verticalAlign=top;spacingLeft=4;spacingRight=4;overflow=hidden;rotatable=0;points=[[0,0.5],[1,0.5]];portConstraint=eastwest;whiteSpace=wrap;html=1;" parent="zaacrL9Uf0j66pZ1ocVG-97" vertex="1">
          <mxGeometry y="78" width="140" height="26" as="geometry" />
        </mxCell>
        <mxCell id="zaacrL9Uf0j66pZ1ocVG-101" value="+ color: string" style="text;strokeColor=none;fillColor=none;align=left;verticalAlign=top;spacingLeft=4;spacingRight=4;overflow=hidden;rotatable=0;points=[[0,0.5],[1,0.5]];portConstraint=eastwest;whiteSpace=wrap;html=1;" parent="zaacrL9Uf0j66pZ1ocVG-97" vertex="1">
          <mxGeometry y="104" width="140" height="26" as="geometry" />
        </mxCell>
        <mxCell id="zaacrL9Uf0j66pZ1ocVG-102" value="+ p_line: int" style="text;strokeColor=none;fillColor=none;align=left;verticalAlign=top;spacingLeft=4;spacingRight=4;overflow=hidden;rotatable=0;points=[[0,0.5],[1,0.5]];portConstraint=eastwest;whiteSpace=wrap;html=1;" parent="zaacrL9Uf0j66pZ1ocVG-97" vertex="1">
          <mxGeometry y="130" width="140" height="26" as="geometry" />
        </mxCell>
        <mxCell id="zaacrL9Uf0j66pZ1ocVG-103" value="+ a: int" style="text;strokeColor=none;fillColor=none;align=left;verticalAlign=top;spacingLeft=4;spacingRight=4;overflow=hidden;rotatable=0;points=[[0,0.5],[1,0.5]];portConstraint=eastwest;whiteSpace=wrap;html=1;" parent="zaacrL9Uf0j66pZ1ocVG-97" vertex="1">
          <mxGeometry y="156" width="140" height="26" as="geometry" />
        </mxCell>
        <mxCell id="zaacrL9Uf0j66pZ1ocVG-104" style="edgeStyle=orthogonalEdgeStyle;rounded=0;orthogonalLoop=1;jettySize=auto;html=1;endArrow=none;endFill=0;startArrow=blockThin;startFill=0;" parent="1" edge="1">
          <mxGeometry relative="1" as="geometry">
            <mxPoint x="780" y="560" as="sourcePoint" />
            <mxPoint x="790" y="810" as="targetPoint" />
            <Array as="points">
              <mxPoint x="750" y="560" />
              <mxPoint x="750" y="810" />
            </Array>
          </mxGeometry>
        </mxCell>
        <mxCell id="zaacrL9Uf0j66pZ1ocVG-105" value="Dif_elements" style="swimlane;fontStyle=0;childLayout=stackLayout;horizontal=1;startSize=26;fillColor=none;horizontalStack=0;resizeParent=1;resizeParentMax=0;resizeLast=0;collapsible=1;marginBottom=0;whiteSpace=wrap;html=1;" parent="1" vertex="1">
          <mxGeometry x="344" y="790" width="140" height="156" as="geometry" />
        </mxCell>
        <mxCell id="zaacrL9Uf0j66pZ1ocVG-106" value="+&amp;nbsp;area : Area" style="text;strokeColor=none;fillColor=none;align=left;verticalAlign=top;spacingLeft=4;spacingRight=4;overflow=hidden;rotatable=0;points=[[0,0.5],[1,0.5]];portConstraint=eastwest;whiteSpace=wrap;html=1;" parent="zaacrL9Uf0j66pZ1ocVG-105" vertex="1">
          <mxGeometry y="26" width="140" height="26" as="geometry" />
        </mxCell>
        <mxCell id="zaacrL9Uf0j66pZ1ocVG-107" value="+ a: int" style="text;strokeColor=none;fillColor=none;align=left;verticalAlign=top;spacingLeft=4;spacingRight=4;overflow=hidden;rotatable=0;points=[[0,0.5],[1,0.5]];portConstraint=eastwest;whiteSpace=wrap;html=1;" parent="zaacrL9Uf0j66pZ1ocVG-105" vertex="1">
          <mxGeometry y="52" width="140" height="26" as="geometry" />
        </mxCell>
        <mxCell id="zaacrL9Uf0j66pZ1ocVG-108" value="+ b: int" style="text;strokeColor=none;fillColor=none;align=left;verticalAlign=top;spacingLeft=4;spacingRight=4;overflow=hidden;rotatable=0;points=[[0,0.5],[1,0.5]];portConstraint=eastwest;whiteSpace=wrap;html=1;" parent="zaacrL9Uf0j66pZ1ocVG-105" vertex="1">
          <mxGeometry y="78" width="140" height="26" as="geometry" />
        </mxCell>
        <mxCell id="zaacrL9Uf0j66pZ1ocVG-109" value="+ color: string" style="text;strokeColor=none;fillColor=none;align=left;verticalAlign=top;spacingLeft=4;spacingRight=4;overflow=hidden;rotatable=0;points=[[0,0.5],[1,0.5]];portConstraint=eastwest;whiteSpace=wrap;html=1;" parent="zaacrL9Uf0j66pZ1ocVG-105" vertex="1">
          <mxGeometry y="104" width="140" height="26" as="geometry" />
        </mxCell>
        <mxCell id="zaacrL9Uf0j66pZ1ocVG-110" value="+ p_line: int" style="text;strokeColor=none;fillColor=none;align=left;verticalAlign=top;spacingLeft=4;spacingRight=4;overflow=hidden;rotatable=0;points=[[0,0.5],[1,0.5]];portConstraint=eastwest;whiteSpace=wrap;html=1;" parent="zaacrL9Uf0j66pZ1ocVG-105" vertex="1">
          <mxGeometry y="130" width="140" height="26" as="geometry" />
        </mxCell>
        <mxCell id="zaacrL9Uf0j66pZ1ocVG-111" style="edgeStyle=orthogonalEdgeStyle;rounded=0;orthogonalLoop=1;jettySize=auto;html=1;endArrow=none;endFill=0;startArrow=block;startFill=0;entryX=1;entryY=0.5;entryDx=0;entryDy=0;" parent="1" target="zaacrL9Uf0j66pZ1ocVG-108" edge="1">
          <mxGeometry relative="1" as="geometry">
            <Array as="points">
              <mxPoint x="540" y="540" />
              <mxPoint x="540" y="880" />
              <mxPoint x="500" y="880" />
            </Array>
            <mxPoint x="780" y="540" as="sourcePoint" />
            <mxPoint x="500" y="970" as="targetPoint" />
          </mxGeometry>
        </mxCell>
        <mxCell id="zaacrL9Uf0j66pZ1ocVG-112" value="Color" style="swimlane;fontStyle=0;childLayout=stackLayout;horizontal=1;startSize=26;fillColor=none;horizontalStack=0;resizeParent=1;resizeParentMax=0;resizeLast=0;collapsible=1;marginBottom=0;whiteSpace=wrap;html=1;" parent="1" vertex="1">
          <mxGeometry x="1040" y="540" width="140" height="52" as="geometry" />
        </mxCell>
        <mxCell id="zaacrL9Uf0j66pZ1ocVG-113" value="+&amp;nbsp;color_code: string" style="text;strokeColor=none;fillColor=none;align=left;verticalAlign=top;spacingLeft=4;spacingRight=4;overflow=hidden;rotatable=0;points=[[0,0.5],[1,0.5]];portConstraint=eastwest;whiteSpace=wrap;html=1;" parent="zaacrL9Uf0j66pZ1ocVG-112" vertex="1">
          <mxGeometry y="26" width="140" height="26" as="geometry" />
        </mxCell>
        <mxCell id="zaacrL9Uf0j66pZ1ocVG-114" value="Pix_line" style="swimlane;fontStyle=0;childLayout=stackLayout;horizontal=1;startSize=26;fillColor=none;horizontalStack=0;resizeParent=1;resizeParentMax=0;resizeLast=0;collapsible=1;marginBottom=0;whiteSpace=wrap;html=1;" parent="1" vertex="1">
          <mxGeometry x="1040" y="620" width="140" height="78" as="geometry" />
        </mxCell>
        <mxCell id="zaacrL9Uf0j66pZ1ocVG-115" value="+&amp;nbsp;size: int" style="text;strokeColor=none;fillColor=none;align=left;verticalAlign=top;spacingLeft=4;spacingRight=4;overflow=hidden;rotatable=0;points=[[0,0.5],[1,0.5]];portConstraint=eastwest;whiteSpace=wrap;html=1;" parent="zaacrL9Uf0j66pZ1ocVG-114" vertex="1">
          <mxGeometry y="26" width="140" height="26" as="geometry" />
        </mxCell>
        <mxCell id="zaacrL9Uf0j66pZ1ocVG-116" value="+&amp;nbsp;color: string" style="text;strokeColor=none;fillColor=none;align=left;verticalAlign=top;spacingLeft=4;spacingRight=4;overflow=hidden;rotatable=0;points=[[0,0.5],[1,0.5]];portConstraint=eastwest;whiteSpace=wrap;html=1;" parent="zaacrL9Uf0j66pZ1ocVG-114" vertex="1">
          <mxGeometry y="52" width="140" height="26" as="geometry" />
        </mxCell>
        <mxCell id="zaacrL9Uf0j66pZ1ocVG-117" style="edgeStyle=orthogonalEdgeStyle;rounded=0;orthogonalLoop=1;jettySize=auto;html=1;exitX=1;exitY=0.5;exitDx=0;exitDy=0;entryX=1;entryY=0.5;entryDx=0;entryDy=0;" parent="1" source="zaacrL9Uf0j66pZ1ocVG-113" target="zaacrL9Uf0j66pZ1ocVG-116" edge="1">
          <mxGeometry relative="1" as="geometry">
            <Array as="points">
              <mxPoint x="1250" y="580" />
              <mxPoint x="1250" y="685" />
            </Array>
          </mxGeometry>
        </mxCell>
        <mxCell id="zaacrL9Uf0j66pZ1ocVG-118" value="GraphicLibrary" style="swimlane;fontStyle=1;align=center;verticalAlign=top;childLayout=stackLayout;horizontal=1;startSize=40;horizontalStack=0;resizeParent=1;resizeParentMax=0;resizeLast=0;collapsible=1;marginBottom=0;whiteSpace=wrap;html=1;" parent="1" vertex="1">
          <mxGeometry x="1450" y="160" width="160" height="152" as="geometry" />
        </mxCell>
        <mxCell id="zaacrL9Uf0j66pZ1ocVG-119" value="+ Gr_lib_name:string" style="text;strokeColor=none;fillColor=none;align=left;verticalAlign=top;spacingLeft=4;spacingRight=4;overflow=hidden;rotatable=0;points=[[0,0.5],[1,0.5]];portConstraint=eastwest;whiteSpace=wrap;html=1;" parent="zaacrL9Uf0j66pZ1ocVG-118" vertex="1">
          <mxGeometry y="40" width="160" height="26" as="geometry" />
        </mxCell>
        <mxCell id="zaacrL9Uf0j66pZ1ocVG-120" value="+ g : AbstractGraphicLibrary" style="text;strokeColor=none;fillColor=none;align=left;verticalAlign=top;spacingLeft=4;spacingRight=4;overflow=hidden;rotatable=0;points=[[0,0.5],[1,0.5]];portConstraint=eastwest;whiteSpace=wrap;html=1;" parent="zaacrL9Uf0j66pZ1ocVG-118" vertex="1">
          <mxGeometry y="66" width="160" height="26" as="geometry" />
        </mxCell>
        <mxCell id="zaacrL9Uf0j66pZ1ocVG-121" value="+ Figures: string" style="text;strokeColor=none;fillColor=none;align=left;verticalAlign=top;spacingLeft=4;spacingRight=4;overflow=hidden;rotatable=0;points=[[0,0.5],[1,0.5]];portConstraint=eastwest;whiteSpace=wrap;html=1;" parent="zaacrL9Uf0j66pZ1ocVG-118" vertex="1">
          <mxGeometry y="92" width="160" height="26" as="geometry" />
        </mxCell>
        <mxCell id="zaacrL9Uf0j66pZ1ocVG-122" value="" style="line;strokeWidth=1;fillColor=none;align=left;verticalAlign=middle;spacingTop=-1;spacingLeft=3;spacingRight=3;rotatable=0;labelPosition=right;points=[];portConstraint=eastwest;strokeColor=inherit;" parent="zaacrL9Uf0j66pZ1ocVG-118" vertex="1">
          <mxGeometry y="118" width="160" height="8" as="geometry" />
        </mxCell>
        <mxCell id="zaacrL9Uf0j66pZ1ocVG-123" value="draw()" style="text;strokeColor=none;fillColor=none;align=left;verticalAlign=top;spacingLeft=4;spacingRight=4;overflow=hidden;rotatable=0;points=[[0,0.5],[1,0.5]];portConstraint=eastwest;whiteSpace=wrap;html=1;" parent="zaacrL9Uf0j66pZ1ocVG-118" vertex="1">
          <mxGeometry y="126" width="160" height="26" as="geometry" />
        </mxCell>
        <mxCell id="zaacrL9Uf0j66pZ1ocVG-124" value="Figures" style="swimlane;fontStyle=1;align=center;verticalAlign=top;childLayout=stackLayout;horizontal=1;startSize=32;horizontalStack=0;resizeParent=1;resizeParentMax=0;resizeLast=0;collapsible=1;marginBottom=0;whiteSpace=wrap;html=1;" parent="1" vertex="1">
          <mxGeometry x="1450" y="350" width="160" height="170" as="geometry" />
        </mxCell>
        <mxCell id="zaacrL9Uf0j66pZ1ocVG-125" value="+ Figures: name &amp;lt;code&amp;gt;" style="text;strokeColor=none;fillColor=none;align=left;verticalAlign=top;spacingLeft=4;spacingRight=4;overflow=hidden;rotatable=0;points=[[0,0.5],[1,0.5]];portConstraint=eastwest;whiteSpace=wrap;html=1;" parent="zaacrL9Uf0j66pZ1ocVG-124" vertex="1">
          <mxGeometry y="32" width="160" height="26" as="geometry" />
        </mxCell>
        <mxCell id="zaacrL9Uf0j66pZ1ocVG-126" value="+ Pic: png" style="text;strokeColor=none;fillColor=none;align=left;verticalAlign=top;spacingLeft=4;spacingRight=4;overflow=hidden;rotatable=0;points=[[0,0.5],[1,0.5]];portConstraint=eastwest;whiteSpace=wrap;html=1;" parent="zaacrL9Uf0j66pZ1ocVG-124" vertex="1">
          <mxGeometry y="58" width="160" height="26" as="geometry" />
        </mxCell>
        <mxCell id="zaacrL9Uf0j66pZ1ocVG-127" value="+ Code:&amp;lt;string&amp;gt;" style="text;strokeColor=none;fillColor=none;align=left;verticalAlign=top;spacingLeft=4;spacingRight=4;overflow=hidden;rotatable=0;points=[[0,0.5],[1,0.5]];portConstraint=eastwest;whiteSpace=wrap;html=1;" parent="zaacrL9Uf0j66pZ1ocVG-124" vertex="1">
          <mxGeometry y="84" width="160" height="26" as="geometry" />
        </mxCell>
        <mxCell id="zaacrL9Uf0j66pZ1ocVG-128" value="+ Settings:&amp;lt;string&amp;gt;" style="text;strokeColor=none;fillColor=none;align=left;verticalAlign=top;spacingLeft=4;spacingRight=4;overflow=hidden;rotatable=0;points=[[0,0.5],[1,0.5]];portConstraint=eastwest;whiteSpace=wrap;html=1;" parent="zaacrL9Uf0j66pZ1ocVG-124" vertex="1">
          <mxGeometry y="110" width="160" height="26" as="geometry" />
        </mxCell>
        <mxCell id="zaacrL9Uf0j66pZ1ocVG-129" value="" style="line;strokeWidth=1;fillColor=none;align=left;verticalAlign=middle;spacingTop=-1;spacingLeft=3;spacingRight=3;rotatable=0;labelPosition=right;points=[];portConstraint=eastwest;strokeColor=inherit;" parent="zaacrL9Uf0j66pZ1ocVG-124" vertex="1">
          <mxGeometry y="136" width="160" height="8" as="geometry" />
        </mxCell>
        <mxCell id="zaacrL9Uf0j66pZ1ocVG-130" value="draw()" style="text;strokeColor=none;fillColor=none;align=left;verticalAlign=top;spacingLeft=4;spacingRight=4;overflow=hidden;rotatable=0;points=[[0,0.5],[1,0.5]];portConstraint=eastwest;whiteSpace=wrap;html=1;" parent="zaacrL9Uf0j66pZ1ocVG-124" vertex="1">
          <mxGeometry y="144" width="160" height="26" as="geometry" />
        </mxCell>
        <mxCell id="zaacrL9Uf0j66pZ1ocVG-131" style="edgeStyle=orthogonalEdgeStyle;rounded=0;orthogonalLoop=1;jettySize=auto;html=1;exitX=1;exitY=0.5;exitDx=0;exitDy=0;entryX=1;entryY=0.5;entryDx=0;entryDy=0;endArrow=diamondThin;endFill=0;" parent="1" source="zaacrL9Uf0j66pZ1ocVG-125" target="zaacrL9Uf0j66pZ1ocVG-121" edge="1">
          <mxGeometry relative="1" as="geometry" />
        </mxCell>
        <mxCell id="zaacrL9Uf0j66pZ1ocVG-132" style="edgeStyle=orthogonalEdgeStyle;rounded=0;orthogonalLoop=1;jettySize=auto;html=1;exitX=0;exitY=0.5;exitDx=0;exitDy=0;entryX=1;entryY=0.5;entryDx=0;entryDy=0;endArrow=diamondThin;endFill=1;" parent="1" source="zaacrL9Uf0j66pZ1ocVG-119" target="zaacrL9Uf0j66pZ1ocVG-93" edge="1">
          <mxGeometry relative="1" as="geometry" />
        </mxCell>
        <mxCell id="zaacrL9Uf0j66pZ1ocVG-133" style="edgeStyle=orthogonalEdgeStyle;rounded=0;orthogonalLoop=1;jettySize=auto;html=1;exitX=0;exitY=0.5;exitDx=0;exitDy=0;entryX=1;entryY=0.5;entryDx=0;entryDy=0;dashed=1;" parent="1" source="zaacrL9Uf0j66pZ1ocVG-115" target="zaacrL9Uf0j66pZ1ocVG-21" edge="1">
          <mxGeometry relative="1" as="geometry">
            <Array as="points">
              <mxPoint x="1040" y="621" />
            </Array>
          </mxGeometry>
        </mxCell>
        <mxCell id="zaacrL9Uf0j66pZ1ocVG-134" style="edgeStyle=orthogonalEdgeStyle;rounded=0;orthogonalLoop=1;jettySize=auto;html=1;exitX=0;exitY=0.5;exitDx=0;exitDy=0;entryX=1;entryY=0.5;entryDx=0;entryDy=0;dashed=1;" parent="1" source="zaacrL9Uf0j66pZ1ocVG-113" target="zaacrL9Uf0j66pZ1ocVG-20" edge="1">
          <mxGeometry relative="1" as="geometry" />
        </mxCell>
        <mxCell id="zaacrL9Uf0j66pZ1ocVG-135" style="edgeStyle=orthogonalEdgeStyle;rounded=0;orthogonalLoop=1;jettySize=auto;html=1;exitX=0;exitY=0.5;exitDx=0;exitDy=0;entryX=1;entryY=0.5;entryDx=0;entryDy=0;dashed=1;" parent="1" source="zaacrL9Uf0j66pZ1ocVG-113" target="zaacrL9Uf0j66pZ1ocVG-18" edge="1">
          <mxGeometry relative="1" as="geometry" />
        </mxCell>
        <mxCell id="d4tAtWqXPtavSnSj6mSQ-5" style="edgeStyle=orthogonalEdgeStyle;rounded=0;orthogonalLoop=1;jettySize=auto;html=1;exitX=1;exitY=0.5;exitDx=0;exitDy=0;entryX=-0.026;entryY=-0.073;entryDx=0;entryDy=0;entryPerimeter=0;" edge="1" parent="1" source="zaacrL9Uf0j66pZ1ocVG-47">
          <mxGeometry relative="1" as="geometry">
            <Array as="points">
              <mxPoint x="724" y="116" />
              <mxPoint x="764" y="116" />
              <mxPoint x="764" y="360" />
            </Array>
            <mxPoint x="724.16" y="111.95" as="sourcePoint" />
            <mxPoint x="779.9999999999999" y="360.052" as="targetPoint" />
          </mxGeometry>
        </mxCell>
        <mxCell id="d4tAtWqXPtavSnSj6mSQ-7" style="edgeStyle=orthogonalEdgeStyle;rounded=0;orthogonalLoop=1;jettySize=auto;html=1;exitX=1;exitY=0.276;exitDx=0;exitDy=0;exitPerimeter=0;entryX=0.007;entryY=0.33;entryDx=0;entryDy=0;entryPerimeter=0;" edge="1" parent="1" source="zaacrL9Uf0j66pZ1ocVG-8">
          <mxGeometry relative="1" as="geometry">
            <Array as="points">
              <mxPoint x="559" y="240" />
              <mxPoint x="698" y="240" />
              <mxPoint x="698" y="405" />
            </Array>
            <mxPoint x="558.88" y="259.99799999999993" as="sourcePoint" />
            <mxPoint x="780.0000000000001" y="404.58000000000004" as="targetPoint" />
          </mxGeometry>
        </mxCell>
        <mxCell id="d4tAtWqXPtavSnSj6mSQ-8" style="edgeStyle=orthogonalEdgeStyle;rounded=0;orthogonalLoop=1;jettySize=auto;html=1;exitX=1.002;exitY=0.066;exitDx=0;exitDy=0;exitPerimeter=0;" edge="1" parent="1" source="zaacrL9Uf0j66pZ1ocVG-41">
          <mxGeometry relative="1" as="geometry">
            <Array as="points">
              <mxPoint x="583" y="350" />
              <mxPoint x="680" y="350" />
              <mxPoint x="680" y="440" />
            </Array>
            <mxPoint x="610" y="350" as="sourcePoint" />
            <mxPoint x="780" y="440" as="targetPoint" />
          </mxGeometry>
        </mxCell>
        <mxCell id="d4tAtWqXPtavSnSj6mSQ-9" style="edgeStyle=orthogonalEdgeStyle;rounded=0;orthogonalLoop=1;jettySize=auto;html=1;exitX=1.001;exitY=-0.011;exitDx=0;exitDy=0;exitPerimeter=0;" edge="1" parent="1" source="zaacrL9Uf0j66pZ1ocVG-74">
          <mxGeometry relative="1" as="geometry">
            <Array as="points">
              <mxPoint x="310" y="400" />
              <mxPoint x="310" y="466" />
            </Array>
            <mxPoint x="280" y="397" as="sourcePoint" />
            <mxPoint x="780" y="466" as="targetPoint" />
          </mxGeometry>
        </mxCell>
        <mxCell id="d4tAtWqXPtavSnSj6mSQ-11" style="edgeStyle=orthogonalEdgeStyle;rounded=0;orthogonalLoop=1;jettySize=auto;html=1;" edge="1" parent="1">
          <mxGeometry relative="1" as="geometry">
            <Array as="points">
              <mxPoint x="180" y="520" />
              <mxPoint x="300" y="520" />
              <mxPoint x="300" y="490" />
            </Array>
            <mxPoint x="180" y="546" as="sourcePoint" />
            <mxPoint x="780" y="490" as="targetPoint" />
          </mxGeometry>
        </mxCell>
        <mxCell id="d4tAtWqXPtavSnSj6mSQ-12" style="edgeStyle=orthogonalEdgeStyle;rounded=0;orthogonalLoop=1;jettySize=auto;html=1;exitX=1.003;exitY=0.73;exitDx=0;exitDy=0;exitPerimeter=0;" edge="1" parent="1" source="zaacrL9Uf0j66pZ1ocVG-61">
          <mxGeometry relative="1" as="geometry">
            <Array as="points">
              <mxPoint x="430" y="769" />
              <mxPoint x="430" y="530" />
            </Array>
            <mxPoint x="310" y="770" as="sourcePoint" />
            <mxPoint x="780" y="530" as="targetPoint" />
          </mxGeometry>
        </mxCell>
        <mxCell id="d4tAtWqXPtavSnSj6mSQ-13" style="edgeStyle=orthogonalEdgeStyle;rounded=0;orthogonalLoop=1;jettySize=auto;html=1;exitX=1;exitY=0.745;exitDx=0;exitDy=0;exitPerimeter=0;" edge="1" parent="1" source="zaacrL9Uf0j66pZ1ocVG-32">
          <mxGeometry relative="1" as="geometry">
            <Array as="points">
              <mxPoint x="730" y="630" />
              <mxPoint x="730" y="550" />
            </Array>
            <mxPoint x="730" y="630" as="sourcePoint" />
            <mxPoint x="780" y="550" as="targetPoint" />
          </mxGeometry>
        </mxCell>
      </root>
    </mxGraphModel>
  </diagram>
</mxfile>
